<?xml version="1.0" encoding="utf-8"?>
<!-- Generator: Adobe Illustrator 16.0.0, SVG Export Plug-In . SVG Version: 6.00 Build 0)  -->
<!DOCTYPE svg PUBLIC "-//W3C//DTD SVG 1.1//EN" "http://www.w3.org/Graphics/SVG/1.1/DTD/svg11.dtd">
<svg version="1.1" id="Layer_1" xmlns="http://www.w3.org/2000/svg" xmlns:xlink="http://www.w3.org/1999/xlink" x="0px" y="0px"
	 width="612px" height="792px" viewBox="0 0 612 792" enable-background="new 0 0 612 792" xml:space="preserve">
<path fill-rule="evenodd" clip-rule="evenodd" fill="#03325B" d="M396.654,395.261c0,16.158-0.035,32.317,0.043,48.475
	c0.01,2.159-0.563,3.404-2.559,4.536c-9.42,5.341-18.713,10.905-28.053,16.386c-18.923,11.102-37.854,22.191-56.761,33.32
	c-1.37,0.807-2.523,0.82-3.899,0.03c-28.799-16.529-57.609-33.04-86.439-49.515c-1.843-1.054-2.64-2.386-2.626-4.531
	c0.2-32.756,0.36-65.513,0.467-98.269c0.006-2.029,1.065-3.073,2.569-3.949c5.317-3.098,10.645-6.178,15.97-9.262
	c22.999-13.314,46.002-26.621,68.987-39.96c1.309-0.759,2.386-0.703,3.673,0.04c28.799,16.616,57.61,33.209,86.437,49.776
	c1.424,0.818,1.984,1.855,1.98,3.487c-0.039,16.478-0.024,32.957-0.024,49.435C396.498,395.261,396.576,395.261,396.654,395.261z"/>
<path fill-rule="evenodd" clip-rule="evenodd" fill="#FEFEFE" d="M392.779,395.202c0,16.039-0.01,32.077,0.023,48.115
	c0.002,0.935-0.302,1.404-1.089,1.865c-27.758,16.258-55.504,32.537-83.236,48.841c-0.836,0.492-1.426,0.493-2.266,0.011
	c-28.244-16.216-56.5-32.409-84.775-48.568c-0.951-0.543-1.204-1.13-1.198-2.161c0.182-32.315,0.335-64.631,0.477-96.947
	c0.003-0.664,0.145-1.068,0.773-1.431c26.194-15.132,52.375-30.287,78.558-45.44c1.695-0.981,3.408-1.933,5.07-2.966
	c0.727-0.452,1.281-0.48,2.051-0.034c23.01,13.293,46.035,26.559,69.058,39.829c5.09,2.934,10.174,5.877,15.281,8.778
	c0.74,0.42,1.063,0.859,1.061,1.756c-0.031,16.118-0.022,32.236-0.022,48.354C392.623,395.202,392.701,395.202,392.779,395.202z"/>
<path fill-rule="evenodd" clip-rule="evenodd" fill="#03325B" d="M329.939,334.61c11.679,0.003,23.358,0.005,35.038,0.014
	c0.518,0,1.057-0.029,1.549,0.099c0.945,0.245,1.543,0.89,1.513,1.901c-0.028,0.951-0.625,1.55-1.521,1.777
	c-0.455,0.116-0.952,0.094-1.43,0.094c-39.118,0.004-78.235,0.004-117.354,0.003c-1.995,0-3.015-0.676-2.989-1.97
	c0.025-1.279,1.025-1.906,3.053-1.907c11.919-0.01,23.838-0.019,35.757-0.027c0.196-0.111,0.404-0.152,0.626-0.11
	c0.642,0.273,1.278,0.246,1.976,0.161c1.9-0.232,3.818-0.063,5.729-0.097c0.676-0.012,1.356,0.037,2.01-0.201
	c0.223-0.05,0.45-0.036,0.676-0.055c6.132-0.099,12.264-0.025,18.396-0.041c2.389-0.006,4.777-0.036,7.165,0.017
	c2.68-0.082,5.357-0.312,8.043-0.226C328.82,334.063,329.442,334.14,329.939,334.61z"/>
<path fill-rule="evenodd" clip-rule="evenodd" fill="#595757" d="M241.786,391.262c-0.91,4.317-0.102,8.45,1.558,12.414
	c2.085,4.983,5.617,8.804,10.433,11.183c8.246,4.074,16.346,3.569,24.016-1.587c1.87-1.258,3.506-2.871,4.864-4.701
	c0.533-0.717,0.947-0.499,1.469-0.062c2.271,1.898,4.548,3.788,6.824,5.68c0.946,0.786,1.897,1.567,2.841,2.355
	c0.157,0.131,0.33,0.301,0.519,0.177c0.323-0.214,0.684-0.424,0.946-0.061c0.274,0.38-0.222,0.615-0.36,0.922
	c-0.082,0.181-0.187,0.35-0.282,0.523c-0.124,0.255-0.209,0.529-0.396,0.751c-3.464,3.857-7.557,6.879-12.202,9.168
	c-3.415,1.479-6.902,2.695-10.609,3.242c-7.529,1.111-14.782,0.228-21.757-2.843c-4.049-1.782-7.709-4.159-10.96-7.161
	c-3.944-3.635-6.736-8.053-8.851-12.946c-1.257-2.91-1.942-5.966-2.498-9.062c-0.105-0.585,0.103-1.195-0.118-1.776
	c-0.3-6.387,0.37-12.619,3.097-18.491c5.438-11.712,14.555-18.93,27.097-21.715c7.221-1.604,14.4-1.007,21.345,1.564
	c6.535,2.421,12.091,6.291,16.496,11.736c0.349,0.431,0.96,0.859,0.35,1.534c-3.228,2.353-6.368,4.822-9.559,7.226
	c-0.512,0.385-1.038,0.745-1.593,1.065c-1.394,0.805-1.812,0.75-2.876-0.45c-3.515-3.961-7.826-6.514-13.072-7.42
	c-6.384-1.103-12.209,0.242-17.473,4.013c-1.992,1.427-3.741,3.099-5.201,5.077c-0.315,0.426-0.549,0.873-0.75,1.351
	C243.339,385.477,242.425,388.315,241.786,391.262z"/>
<path fill-rule="evenodd" clip-rule="evenodd" fill="#9F9F9F" d="M291.498,327.636c0.018-0.252-0.043-0.529,0.223-0.703
	c1.366-0.054,0.75-1,0.751-1.669c-0.009-0.082,0.003-0.16,0.034-0.235c0.354-0.411,0.413-0.898,0.125-1.321
	c-0.829-1.213-1.675-2.417-2.666-3.508c-0.134-0.147-0.303-0.262-0.523-0.164c-0.11,0.092-0.214,0.191-0.352,0.24
	c-0.397-0.502-0.297-0.99,0.041-1.471c0.864-0.349,1.566-0.907,2.218-1.571c1.003-1.021,1.375-1.037,2.583-0.218
	c1.054,0.716,2.059,1.502,3.071,2.275c0.951,0.725,1.967,0.79,3.05,0.446c0.835-0.265,1.624-0.659,2.448-0.954
	c0.789-0.282,1.225-0.716,0.924-1.611c-0.063-0.188-0.026-0.395,0.059-0.583c0.435-2.087,0.613-4.234,1.461-6.223
	c1.752-0.157,3.514-0.014,5.266-0.163c0.816,2.309,1.073,4.716,1.252,7.136c-0.12,0.658,0.07,1.123,0.74,1.391
	c0.589,0.234,1.127,0.591,1.742,0.772c1.038,0.308,2.012,0.283,2.952-0.374c1.075-0.75,2.219-1.399,3.31-2.13
	c1.291-0.866,1.639-0.83,2.771,0.32c0.704,0.716,1.427,1.38,2.396,1.712c0.32,0.41,0.38,0.825,0.024,1.249
	c-0.159,0.011,0.045-0.051-0.113-0.029c-1.186,0.167-3.443,3.122-3.291,4.306c0.021,0.4,0.043,0.801,0.064,1.201
	c-0.621,0.333-0.558,0.804-0.251,1.309c0.463,0.764,0.768,1.561,0.789,2.478c0.017,0.691,0.512,1.023,1.153,1.193
	c1.852,0.492,3.672,1.109,5.589,1.326c0.206,0.023,0.387,0.09,0.464,0.313c-0.209,1.162-1.219,1.024-1.978,1.107
	c-1.228,0.136-2.476,0.042-3.715,0.043c-2.826,0.003-2.827,0.001-3.599-2.638c-0.561-1.919-1.174-3.816-2.372-5.457
	c-0.551-0.621-1.156-1.198-1.605-1.905c-0.13-0.405-0.451-0.605-0.819-0.756c-1.867-1.653-3.928-2.906-6.448-3.301
	c-1.028-0.161-2.051-0.068-3.074-0.108c-0.526,0.027-1.068-0.094-1.572,0.158c-1.917,0.674-3.8,1.42-5.436,2.67
	c-2.972,2.436-4.622,5.641-5.4,9.337c-0.411,1.95-0.421,1.968-2.406,2c-1.715,0.028-3.429-0.065-5.147,0.107
	c-1.187,0.119-2.201-0.336-2.677-1.57c-0.075-0.192-0.09-0.38,0.033-0.56l-0.005-0.005c1.517,0.369,2.871-0.337,4.278-0.665
	c0.697-0.163,1.382-0.386,2.083-0.543c1.505-0.337,1.702-0.62,1.468-2.075C291.378,328.022,291.392,327.817,291.498,327.636z"/>
<path fill-rule="evenodd" clip-rule="evenodd" fill="#504E4E" d="M333.997,388.162c2.011,2.755,4.025,5.509,6.031,8.267
	c1.378,1.896,2.745,3.798,4.179,5.782c1.742-2.416,3.431-4.762,5.124-7.104c5.221-7.223,10.446-14.442,15.665-21.667
	c4.127-5.714,8.233-11.443,12.377-17.146c1.133-1.558,2.659-1.338,3.468,0.429c0.143,0.43,0.072,0.873,0.072,1.309
	c0.004,17.422,0.049,34.845-0.021,52.268c-0.024,6.227-0.235,12.453-0.223,18.683c0.004,1.39-0.556,2.042-1.896,2.368
	c-0.508,0.123-1.026,0.155-1.547,0.157c-3.037,0.01-6.073,0.023-9.11-0.004c-2.152-0.02-2.788-0.673-2.791-2.812
	c-0.008-5.475-0.009-10.949,0-16.424c0.005-2.914-0.181-5.822-0.239-8.734c-0.006-0.329-0.132-0.622-0.19-0.931
	c-0.049-0.27,0.029-0.537,0.043-0.711c-1.82,2.612-3.792,5.215-5.716,7.852c-4.19,5.741-8.4,11.468-12.575,17.221
	c-1.329,1.831-2.993,1.774-4.327-0.063c-3.919-5.396-7.801-10.818-11.751-16.191c-2.194-2.983-4.348-5.998-6.537-9.097
	c0.229,0.5,0.226,0.942,0.156,1.393c-0.344,1.457-0.135,2.942-0.241,4.412c-0.257,3.507-0.071,7.028-0.172,10.54
	c-0.106,3.712-0.257,7.42-0.232,11.135c0.008,1.264-0.554,1.89-1.775,2.219c-0.467,0.126-0.943,0.179-1.424,0.182
	c-3.277,0.016-6.556,0.032-9.833-0.006c-1.663-0.02-2.099-0.4-2.398-1.885c0.454-10.898,0.018-21.797,0.009-32.695
	c-0.01-12.191-0.029-24.383-0.057-36.574c-0.003-1.146,0.116-2.131,1.46-2.512c1.592-0.453,2.514-0.21,3.434,1.047
	c3.068,4.192,6.166,8.365,9.067,12.676c0.104,0.218-0.025,0.316-0.199,0.392c-0.588-0.016-0.759-0.527-1.026-0.897
	c-2.82-3.904-5.636-7.812-8.494-11.686c-0.183-0.192-0.387-0.354-0.643-0.44c-0.542-0.211-1.11-0.227-1.68-0.218
	c-0.193,0.01-0.384,0.028-0.558,0.124c-0.121,0.084-0.228,0.183-0.321,0.297c-0.276,0.322-0.226,0.708-0.218,1.089
	c0.008,0.139,0.01,0.272,0.01,0.41c-0.168,22.642,0.282,45.276,0.253,67.912c-0.101,1.044,0.484,1.466,1.423,1.483
	c3.438,0.067,6.877,0.063,10.314-0.018c1.173-0.027,1.699-0.672,1.729-1.859c0.027-1.119,0.008-2.239,0.003-3.359
	c0.002-5.792,0.33-11.576,0.289-17.369c-0.013-1.702,0.196-3.42,0.188-5.133c-0.005-0.357,0.003-0.719,0.039-1.074
	c0.054-0.528-0.214-1.305,0.434-1.476c0.59-0.155,0.876,0.582,1.217,1.007c0.801,0.998,1.503,2.067,2.259,3.1
	c5.378,7.35,10.729,14.72,16.057,22.106c1.002,1.39,1.758,1.399,2.788,0.006c5.202-7.034,10.328-14.124,15.498-21.183
	c1.106-1.511,2.21-3.032,3.281-4.572c0.278-0.399,0.535-1.055,1.171-0.758c0.521,0.243,0.282,0.828,0.257,1.301
	c-0.129,2.428-0.304,4.858,0.131,7.279c0.108,3.44,0.03,6.879,0.071,10.316c-0.095,3.386-0.027,6.773-0.03,10.159
	c-0.001,0.963,0.516,1.505,1.466,1.518c3.387,0.047,6.774,0.075,10.16-0.013c1.397-0.035,1.82-0.661,1.843-2.349
	c-0.162-23.236,0.387-46.47,0.243-69.703c-0.011-0.312,0.027-0.63-0.067-0.937c-0.076-0.144-0.168-0.278-0.282-0.395
	c-0.632-0.488-1.146-0.295-1.597,0.275c-8.064,11.113-16.059,22.276-24.138,33.378c-2.959,4.066-5.892,8.152-8.892,12.189
	c-0.534,0.786-1.081,0.871-1.646,0.031c-2.962-4.319-6.104-8.512-9.12-12.793c-0.274-0.389-0.619-0.744-0.607-1.271
	C333.685,388.234,333.77,388.096,333.997,388.162z"/>
<path fill-rule="evenodd" clip-rule="evenodd" fill="#03325B" d="M265.535,456.819c-6.036,0-12.072,0.001-18.108-0.001
	c-1.906-0.001-2.904-0.659-2.921-1.916c-0.017-1.269,0.99-1.959,2.877-1.961c11.911-0.015,23.823-0.028,35.734-0.039
	c0.479-0.001,0.961-0.003,1.438,0.036c1.305,0.107,2.164,0.912,2.14,1.979c-0.023,1.022-0.855,1.819-2.095,1.896
	c-1.075,0.065-2.157,0.044-3.236,0.045c-5.276,0.004-10.553,0.002-15.829,0.002C265.535,456.846,265.535,456.832,265.535,456.819z"
	/>
<path fill-rule="evenodd" clip-rule="evenodd" fill="#03325B" d="M348.528,456.819c-5.354,0-10.708,0.002-16.062-0.003
	c-0.478-0.001-0.973,0.024-1.429-0.087c-0.948-0.232-1.565-0.855-1.556-1.865c0.01-1.007,0.637-1.604,1.584-1.847
	c0.304-0.078,0.635-0.073,0.952-0.073c10.987,0.01,21.974,0.023,32.96,0.038c0.36,0,0.72,0.019,1.079,0.026
	c1.029,0.021,1.685,0.525,1.784,1.557c0.104,1.064-0.445,1.766-1.474,2.016c-1.093,0.268-2.222,0.229-3.337,0.232
	C358.196,456.828,353.362,456.819,348.528,456.819z"/>
<path fill-rule="evenodd" clip-rule="evenodd" fill="#F1EFEF" d="M365.159,402.09c0.481,8.706,0.204,17.42,0.278,26.131
	c0.02,2.396,0.583,3.007,2.928,2.989c3.119-0.021,6.238-0.055,9.356-0.119c2.189-0.045,2.841-0.733,2.847-2.887
	c0.015-4.839-0.047-9.68,0.055-14.517c0.393-18.628,0.066-37.258,0.183-55.887c0.003-0.359,0.023-0.718,0.035-1.078
	c0.336,0.379,0.195,0.841,0.195,1.266c0.006,19.992,0.07,39.984-0.055,59.975c-0.024,3.865-0.09,7.739-0.185,11.608
	c-0.04,1.629-0.83,2.445-2.424,2.504c-3.348,0.122-6.692,0.335-10.047,0.252c-2.178-0.054-3.123-0.963-3.125-3.155
	c-0.006-5.798,0.008-11.596-0.012-17.394c-0.01-2.829-0.406-5.647-0.182-8.604c-0.975,0.362-1.269,1.195-1.73,1.823
	c-4.638,6.32-9.248,12.659-13.863,18.994c-0.867,1.19-1.746,2.373-2.582,3.585c-1.43,2.07-3.036,2.184-4.496,0.199
	c-2.713-3.685-5.36-7.417-8.053-11.117c-3.09-4.248-6.199-8.48-9.299-12.722c-0.159-0.218-0.25-0.611-0.567-0.528
	c-0.409,0.107-0.247,0.537-0.247,0.83c-0.001,4.949-0.266,9.894-0.299,14.845c-0.023,3.506-0.176,7.016-0.201,10.526
	c-0.01,1.441-0.971,2.385-2.387,2.47c-3.546,0.213-7.095,0.299-10.646,0.235c-1.797-0.032-2.583-0.897-2.523-2.712
	c0.428,1.219,1.299,1.654,2.566,1.624c3.314-0.081,6.63-0.072,9.943-0.138c2.178-0.043,2.796-0.734,2.822-2.908
	c0.08-6.586,0.166-13.173,0.277-19.76c0.033-1.953,0.156-3.906,0.238-5.859c0.667-0.692,0.881,0.101,1.11,0.41
	c1.277,1.729,2.535,3.474,3.802,5.212c4.454,6.107,8.848,12.259,13.343,18.338c0.119,0.161,0.206,0.341,0.313,0.51
	c1.099,1.747,2.693,1.792,3.906,0.103c5.247-7.313,10.625-14.53,15.903-21.819c0.746-1.03,1.453-2.089,2.255-3.078
	C364.76,402.031,364.897,401.861,365.159,402.09z"/>
<path fill-rule="evenodd" clip-rule="evenodd" fill="#E4E1E1" d="M244.897,382.863c0.999-2.092,2.561-3.749,4.276-5.232
	c3.187-2.756,6.848-4.664,11.028-5.35c7.815-1.283,14.691,0.647,20.415,6.259c0.314,0.308,0.622,0.623,0.934,0.933
	c1.681,1.667,1.195,1.779,3.3,0.319c3.099-2.148,6.029-4.538,9.05-6.798c0.509-0.381,0.884-1.085,1.706-0.887
	c-0.28,0.969-1.126,1.401-1.852,1.94c-3.222,2.389-6.451,4.769-9.677,7.152c-1.476,0.557-2.125-0.554-2.891-1.432
	c-0.314-0.161-0.552-0.399-0.713-0.713c-0.317-0.245-0.614-0.517-0.953-0.733c-2.955-2.491-6.346-4.109-10.081-5.041
	c-0.308-0.267-0.734,0.006-1.049-0.231c-0.577-0.337-1.253,0.064-1.833-0.248l0.001,0.001c-1.439-0.202-2.879-0.205-4.318,0.001
	l0.001-0.001c-0.529,0.307-1.156-0.085-1.682,0.239h0c-0.36,0.28-0.843-0.055-1.201,0.239c-0.876,0.243-1.752,0.486-2.627,0.729
	c-0.395,0.181-0.832,0.255-1.213,0.472c-0.159,0.08-0.318,0.161-0.478,0.241c-0.385,0.2-0.827,0.258-1.203,0.481
	c-2.485,1.386-4.774,3.027-6.702,5.143c-0.646,0.708-1.248,1.445-1.699,2.295C245.298,382.81,245.187,383.054,244.897,382.863z"/>
<path fill-rule="evenodd" clip-rule="evenodd" fill="#E5E2E2" d="M227.223,397.479c0.478,2.419,0.761,4.877,1.526,7.236
	c2.022,6.235,5.336,11.674,10.002,16.283c2.864,3.016,6.344,5.149,10.033,6.974c0.568,0.28,1.127,0.593,1.732,0.799
	c0.412,0.205,0.822,0.414,1.281,0.501c1.793,0.662,3.614,1.229,5.484,1.627c0.389,0.076,0.766,0.215,1.166,0.24
	c0.113,0.012,0.223,0.036,0.332,0.066c0.44,0.112,0.889,0.15,1.342,0.17c0.12,0.007,0.236,0.027,0.352,0.057
	c0.667,0.123,1.339,0.181,2.018,0.179c0.13,0.005,0.257,0.022,0.384,0.054c1.655,0.14,3.308,0.133,4.961,0.003
	c0.125-0.033,0.254-0.052,0.384-0.057c0.698,0.001,1.392-0.055,2.077-0.193c0.125-0.029,0.25-0.044,0.378-0.049
	c0.44,0.005,0.898-0.161,1.309,0.131c0.106,0.093,0.139,0.208,0.099,0.344c-2.895,0.505-5.784,0.862-8.749,0.594
	c-2.457-0.223-4.898-0.471-7.292-1.074c-8.006-2.016-14.803-6.101-20.137-12.372c-4.405-5.178-7.255-11.207-8.411-17.954
	C227.294,399.874,227.019,398.686,227.223,397.479z"/>
<path fill-rule="evenodd" clip-rule="evenodd" fill="#828080" d="M284.032,334.621c-0.158-0.009-0.317-0.019-0.475-0.027
	c-0.061-0.382-0.33-0.733-0.175-1.148c0.172-0.161,0.008-0.569,0.413-0.558c0.95,0.595,1.966,0.671,3.076,0.59
	c1.709-0.124,3.43-0.024,5.146-0.039c1.372-0.012,1.469-0.124,1.662-1.447c0.448-3.063,1.617-5.807,3.681-8.141
	c0.105-0.079,0.223-0.105,0.351-0.079c0.415,0.467,0.017,0.793-0.211,1.135c-0.57,0.853-1.109,1.72-1.532,2.66
	c-0.221,0.491-0.29,0.972-0.174,1.49c-0.557,1.83-0.916,3.709-1.388,5.56c-0.171,0.013-0.342,0.025-0.514,0.038
	c-2.816,0.255-5.646-0.071-8.461,0.219C284.939,334.925,284.489,334.758,284.032,334.621z"/>
<path fill-rule="evenodd" clip-rule="evenodd" fill="#ECEBEB" d="M272.082,431.843c-0.002-0.083-0.004-0.165-0.006-0.247
	c0.036-0.038,0.071-0.076,0.106-0.114c0.318-0.181,0.708-0.138,1.021-0.335c0.371-0.227,0.798-0.295,1.202-0.432
	c0.106-0.038,0.214-0.063,0.324-0.085c1.847-0.432,3.645-1.003,5.354-1.833c0.372-0.157,0.722-0.358,1.093-0.516
	c3.184-1.242,5.968-3.144,8.602-5.274c1.609-1.302,3.161-2.675,4.356-4.395c0.16-0.169,0.319-0.338,0.479-0.507
	c0.337,1.251-0.625,1.963-1.294,2.642c-5.611,5.688-12.319,9.427-20.164,11.065C272.811,431.884,272.44,431.835,272.082,431.843z"/>
<path fill-rule="evenodd" clip-rule="evenodd" fill="#7B7979" d="M329.939,334.61c-3.221-0.489-6.441-0.009-9.662-0.014
	c-0.534-0.657-0.448-1.492-0.639-2.247c-0.28-1.108-0.711-2.171-0.955-3.289c0.039-0.976-0.379-1.814-0.793-2.657
	c-0.18-0.367-0.538-0.715-0.195-1.174c0.288-0.039,0.49,0.107,0.667,0.308c1.203,2,2.003,4.139,2.357,6.454
	c0.205,1.334,0.385,1.448,1.703,1.449c2.189,0.001,4.391,0.127,6.555-0.261c1.028-0.185,1.232,0.143,0.977,1.037
	C329.949,334.346,329.944,334.479,329.939,334.61z"/>
<path fill-rule="evenodd" clip-rule="evenodd" fill="#7B7979" d="M296.536,458.495c-0.001,0.157-0.003,0.314-0.004,0.472
	c-0.935,0.907-1.983,0.626-2.98,0.201c-0.909-0.388-1.412-1.109-1.317-2.168c0.035-0.391,0.039-0.793-0.085-1.178
	c-0.057-0.942,0.01-1.887-0.034-2.829c-0.026-0.578,0.088-0.938,0.771-0.76c0.504,0.133,1.009-0.198,1.512,0.008
	c0.003,1.602,0.006,3.202,0.009,4.804c-0.253,0.199-0.801,0.105-0.724,0.627c0.066,0.445,0.435,0.628,0.85,0.713
	C295.196,458.521,295.879,458.266,296.536,458.495z"/>
<path fill-rule="evenodd" clip-rule="evenodd" fill="#575555" d="M321.78,371.834c0.082-0.096,0.164-0.192,0.246-0.289
	c1.987,2.333,3.636,4.916,5.425,7.394c2.205,3.057,4.519,6.038,6.546,9.222c-0.082,0.087-0.164,0.174-0.246,0.262
	c-0.565,0.07-0.731-0.406-0.977-0.743c-3.402-4.687-6.762-9.404-10.171-14.085C322.228,373.079,321.632,372.616,321.78,371.834z"/>
<path fill-rule="evenodd" clip-rule="evenodd" fill="#7B7A7A" d="M307.585,452.249c0,1.437-0.001,2.873-0.001,4.309
	c-0.077,0.095-0.074,0.227-0.13,0.321c-0.646,1.105-0.406,1.5,0.9,1.541c0.452,0.014,0.929-0.283,1.359,0.082
	c0.003,0.155,0.006,0.311,0.009,0.466c-0.1,0.094-0.212,0.168-0.338,0.223c-0.734,0.159-1.475,0.093-2.215,0.063
	c-0.271-0.043-0.514-0.15-0.717-0.337c-0.771-0.735-1.059-1.572-0.922-2.686c0.132-1.078,0.303-2.232-0.322-3.269
	c0.001-0.316,0.002-0.634,0.004-0.951c0.594-0.338,1.276-0.041,1.899-0.275C307.493,451.592,307.425,452.073,307.585,452.249z"/>
<path fill-rule="evenodd" clip-rule="evenodd" fill="#B5B4B4" d="M303.484,316.59c0.538,1.872,0.538,1.873-1.328,2.656
	c-0.511,0.215-1.025,0.423-1.537,0.638c-1.477,0.618-2.837,0.509-4.114-0.542c-0.976-0.804-2.025-1.52-3.028-2.292
	c-0.656-0.505-1.158-0.42-1.745,0.184c-0.713,0.736-1.277,1.813-2.601,1.571c0.797-0.961,1.594-1.922,2.391-2.883
	c0.91-0.223,1.703,0.008,2.468,0.535c1.209,0.832,2.396,1.693,3.54,2.61c0.692,0.556,1.416,0.732,2.205,0.308
	c1.069-0.576,2.391-0.63,3.272-1.589C303.167,317.387,303.325,316.988,303.484,316.59z"/>
<path fill-rule="evenodd" clip-rule="evenodd" fill="#7F7D7D" d="M317.924,454.881c0-0.08,0.001-0.16,0.002-0.241
	c0.813-0.559,1.449-1.309,2.17-1.967c0.892-0.815,1.984-1.192,3.182-0.831c0.905,0.273,1.898,0.146,2.744,0.647
	c0.222,0.223,0.396,0.45,0.069,0.726c-1.067,0.201-2.016-0.308-3.015-0.513c-1.137-0.232-2.438,0.353-2.93,1.313
	c-0.136,0.267-0.264,0.515,0.165,0.625c-0.028,0.657-0.141,1.322,0.217,1.936c0.334,1.243,1.093,1.716,2.508,1.569
	c0.565-0.059,1.083-0.257,1.584-0.514c0.387-0.197,0.775-0.463,1.21-0.097c0.085,0.154,0.169,0.31,0.254,0.465
	c-0.959,0.655-1.944,1.235-3.154,1.275c-2.162,0.071-3.228-0.593-4.055-2.608C318.617,456.034,318.221,455.486,317.924,454.881z"/>
<path fill-rule="evenodd" clip-rule="evenodd" fill="#949393" d="M329.954,334.214c0.029-0.659-0.077-0.931-0.93-0.825
	c-2.208,0.273-4.438,0.318-6.67,0.315c-1.232-0.001-1.892-0.483-1.981-1.679c-0.178-2.364-1.17-4.441-2.213-6.505
	c-0.136-0.16-0.148-0.32,0-0.48c1.125,1.082,1.541,2.554,2.125,3.925c0.293,0.689,0.465,1.432,0.662,2.159
	c0.561,2.074,0.556,2.115,2.734,2.063c1.702-0.041,3.414,0.22,5.108-0.19c0.46-0.112,0.862-0.185,0.889-0.758
	c-0.057-0.221,0.025-0.302,0.246-0.241C330.155,332.733,330.401,333.469,329.954,334.214z"/>
<path fill-rule="evenodd" clip-rule="evenodd" fill="#B8B7B7" d="M325.374,319.031c-1.221,0.275-1.768-0.686-2.455-1.36
	c-1.29-1.265-1.275-1.266-2.746-0.292c-1.156,0.766-2.332,1.503-3.492,2.265c-0.764,0.501-1.606,0.446-2.42,0.281
	c-0.979-0.199-1.846-0.726-2.711-1.209c-0.688-0.384-0.736-0.874-0.087-1.375c0.15,0.17,0.301,0.34,0.451,0.51
	c1.417,1.55,3.388,1.842,5.044,0.717c1.146-0.779,2.349-1.468,3.487-2.261c0.847-0.344,1.678-0.351,2.492,0.095
	C323.75,317.277,324.562,318.154,325.374,319.031z"/>
<path fill-rule="evenodd" clip-rule="evenodd" fill="#605657" d="M325.845,458.728c-1.401,1.469-3.293,1.908-5.089,1.184
	c-1.793-0.724-2.87-2.267-2.844-4.075c0.564-0.123,0.752,0.285,0.961,0.674c1.509,2.806,3.173,3.343,6.128,1.979
	c0.215-0.1,0.427-0.265,0.657-0.254C326.007,458.251,325.992,458.482,325.845,458.728z"/>
<path fill-rule="evenodd" clip-rule="evenodd" fill="#C4C2C2" d="M303.008,317.785c0.025,0.252-0.022,0.49-0.241,0.637
	c-0.197,0.132-0.426,0.216-0.632,0.335c-2.281,1.311-4.35,1.468-6.368-0.661c-1.096-1.156-2.527-2.042-4.244-2.175
	c0.607-0.826,1.299-0.598,1.971-0.123c1.366,0.967,2.734,1.935,4.063,2.952c0.761,0.583,1.462,0.621,2.327,0.216
	C300.889,318.496,301.964,318.173,303.008,317.785z"/>
<path fill-rule="evenodd" clip-rule="evenodd" fill="#A6A5A5" d="M329.925,331.998c-0.082,0.08-0.164,0.161-0.246,0.241
	c-1.687,0.328-3.156-0.589-4.744-0.831c-0.546-0.083-1.075-0.287-1.608-0.445c-0.595-0.177-1.076-0.616-1.028-1.186
	c0.104-1.221-0.582-2.113-1.042-3.109c-0.134-0.292-0.306-0.574-0.063-0.891c0.28-0.364,0.575-0.092,0.865-0.021
	c0.563,1.051,1.078,2.118,1.165,3.334c-0.264,0.938,0.338,1.259,1.065,1.452c1.854,0.49,3.682,1.11,5.619,1.22
	C329.938,331.84,329.943,331.918,329.925,331.998z"/>
<path fill-rule="evenodd" clip-rule="evenodd" fill="#B4B3B3" d="M318.419,453.211c1.407-2.733,5.183-3.226,7.417-0.968
	c-0.761,0.351-1.508,0.048-2.197-0.168c-1.404-0.439-2.564-0.09-3.652,0.796C319.533,453.24,319.076,453.729,318.419,453.211z"/>
<path fill-rule="evenodd" clip-rule="evenodd" fill="#ABABAB" d="M291.498,327.636c0.01,0.198-0.024,0.412,0.04,0.591
	c0.134,0.38,0.983,0.399,0.598,1.025c-0.377,0.613-0.901,1.146-1.65,1.275c-1.758,0.302-3.453,0.842-5.153,1.353
	c-0.71,0.213-1.229,0.034-1.75-0.379c0.002-0.202,0.083-0.355,0.27-0.446c2.136-0.158,4.144-0.897,6.207-1.384
	c0.418-0.099,0.787-0.356,0.994-0.774C291.35,328.529,291.136,327.98,291.498,327.636z"/>
<path fill-rule="evenodd" clip-rule="evenodd" fill="#C4C2C2" d="M320.318,316.639c-1.346,0.899-2.675,1.824-4.042,2.688
	c-0.96,0.605-3.895-0.176-4.452-1.144c-0.04-0.07,0.057-0.221,0.09-0.333c2.343,1.516,4.504,1.312,6.559-0.596
	c0.513-0.476,1.214-0.75,1.828-1.117c0.038,0.032,0.075,0.063,0.113,0.096C320.46,316.387,320.435,316.524,320.318,316.639z"/>
<path fill-rule="evenodd" clip-rule="evenodd" fill="#6E6667" d="M321.994,324.557c-0.796-0.244-0.569-0.824-0.272-1.213
	c0.839-1.1,1.745-2.15,2.662-3.187c0.331-0.374,0.776-0.718,1.015,0.124C324.379,321.797,323.172,323.165,321.994,324.557z"/>
<path fill-rule="evenodd" clip-rule="evenodd" fill="#655F5F" d="M320.312,454.64c-0.155,0.102-0.368,0.324-0.454,0.283
	c-0.302-0.147-0.25-0.433-0.156-0.719c0.309-0.946,1.907-2.1,2.899-1.916c1.18,0.219,2.328,0.61,3.49,0.927
	c-0.864,1.09-0.864,1.09-2.652-0.031c-0.559-0.171-1.118-0.171-1.678,0C321.035,453.428,320.523,453.885,320.312,454.64z"/>
<path fill-rule="evenodd" clip-rule="evenodd" fill="#CAC8C8" d="M291.053,328.896c0.063,0.644-0.328,0.963-0.867,1.103
	c-1.684,0.439-3.373,0.86-5.066,1.26c-0.43,0.102-0.871,0.024-1.268-0.205c1.786-0.852,3.756-1.087,5.621-1.675
	C289.998,329.214,290.526,329.057,291.053,328.896z"/>
<path fill-rule="evenodd" clip-rule="evenodd" fill="#C9C7C7" d="M325.83,457.534c-0.82-0.07-1.322,0.662-2.074,0.813
	c-1.045,0.209-2.039,0.341-2.933-0.425c-0.446-0.383-0.65-0.798-0.295-1.347c1.481,1.488,2.106,1.538,3.9,0.289
	C325.304,456.254,325.463,457.103,325.83,457.534z"/>
<path fill-rule="evenodd" clip-rule="evenodd" fill="#9E9D9D" d="M294.398,452.241c-0.662,0.342-1.309,0.817-2.128,0
	c0,1.362,0,2.498,0,3.634c0.212,0.895-0.036,1.829,0.261,2.725c0.098,0.295-0.037,0.633-0.308,0.86
	c-0.43-0.483-0.215-1.066-0.221-1.603c-0.018-1.789-0.029-3.58,0.024-5.369c0.021-0.713,0.334-1.379,1.179-1.392
	C293.9,451.086,294.455,451.389,294.398,452.241z"/>
<path fill-rule="evenodd" clip-rule="evenodd" fill="#747272" d="M325.845,458.728c-0.35-0.801-0.735-0.087-1.001,0.038
	c-1.313,0.621-2.585,0.911-3.998,0.24c-0.972-0.462-1.538-1.227-2.025-2.103c-0.233-0.421-0.432-0.858-0.908-1.067
	c0.004-0.317,0.008-0.637,0.012-0.955c0.615,0.358,0.963,0.901,1.208,1.567c0.891,2.423,3.035,3.235,5.393,2.091
	c0.496-0.24,0.959-0.594,1.56-0.54C326.29,458.336,326.139,458.555,325.845,458.728z"/>
<path fill-rule="evenodd" clip-rule="evenodd" fill="#C9C8C8" d="M323.476,329.557c2.048,0.62,4.216,0.812,6.178,1.736
	c-0.327,0.43-0.801,0.57-1.271,0.432c-1.438-0.42-2.921-0.676-4.336-1.177C323.591,330.386,323.106,330.208,323.476,329.557z"/>
<path fill-rule="evenodd" clip-rule="evenodd" fill="#636060" d="M292.224,459.46c0.015-1.195,0.031-2.391,0.046-3.585
	c0.063,0.098,0.168,0.19,0.182,0.295c0.367,2.814,1.377,3.51,4.079,2.797c0.107,0.439,0.072,0.81-0.458,0.938
	c-1.117,0.006-2.234,0.026-3.351,0.009C292.442,459.889,292.333,459.673,292.224,459.46z"/>
<path fill-rule="evenodd" clip-rule="evenodd" fill="#D0CECE" d="M310.211,310.204c-1.733,0.75-3.497,0.539-5.266,0.163
	C305.945,309.583,309.284,309.48,310.211,310.204z"/>
<path fill-rule="evenodd" clip-rule="evenodd" fill="#757373" d="M305.208,452.962c1.292,0.804,0.738,2.106,0.643,3.124
	c-0.101,1.081,0.061,1.896,0.782,2.646c-0.824,0.004-0.824,0.004-1.226,0.778c-0.504-0.762-0.212-1.61-0.234-2.415
	C305.136,455.719,305.191,454.34,305.208,452.962z"/>
<path fill-rule="evenodd" clip-rule="evenodd" fill="#8B8A8A" d="M318.419,453.211c0.606,0.102,1.07-0.219,1.514-0.548
	c1.196-0.888,2.486-1.142,3.917-0.681c0.642,0.207,1.307,0.308,1.986,0.261c0.062,0.082,0.124,0.164,0.186,0.246
	c-0.794,0.012-1.586,0.017-2.352-0.25c-1.771-0.617-3.146,0.069-4.138,1.473c-0.445,0.631-0.927,0.868-1.606,0.928
	C317.875,454.089,318.167,453.656,318.419,453.211z"/>
<path fill-rule="evenodd" clip-rule="evenodd" fill="#B2B1B1" d="M323.476,329.557c-0.031,0.304,0.052,0.575,0.351,0.683
	c1.559,0.564,3.166,0.96,4.795,1.256c0.321,0.058,0.688-0.129,1.032-0.203c0.085,0.157,0.17,0.313,0.255,0.47
	c-0.813,0.302-1.596,0.252-2.427-0.026c-1.27-0.425-2.596-0.681-3.86-1.118c-0.742-0.256-1.299-0.751-0.397-1.527
	C323.308,329.247,323.392,329.402,323.476,329.557z"/>
<path fill-rule="evenodd" clip-rule="evenodd" fill="#979696" d="M296.536,458.495c-0.746,0.378-1.561,0.319-2.311,0.164
	c-0.622-0.129-1.172-0.624-0.964-1.382c0.183-0.667,0.698-0.465,1.146-0.232c0.07,0.473,0.274,0.753,0.822,0.76
	C295.754,457.812,296.332,457.831,296.536,458.495z"/>
<path fill-rule="evenodd" clip-rule="evenodd" fill="#E8E5E5" d="M244.897,382.863c0.181-0.074,0.361-0.148,0.542-0.223
	c-0.797,1.624-1.795,3.139-2.444,4.847c-0.472,1.241-0.569,2.595-1.209,3.775C242.138,388.208,243.149,385.399,244.897,382.863z"/>
<path fill-rule="evenodd" clip-rule="evenodd" fill="#777575" d="M289.132,319.766c0.484-0.527,0.808-0.065,1.052,0.237
	c0.94,1.166,1.878,2.339,2.73,3.569c0.362,0.523,0.542,1.202-0.409,1.457c-0.102-0.229-0.203-0.458-0.304-0.688
	c-0.25-1.364-1.379-2.172-2.074-3.254C289.833,320.626,289.382,320.269,289.132,319.766z"/>
<path fill-rule="evenodd" clip-rule="evenodd" fill="#A09F9F" d="M309.714,458.502c-0.811,0.207-1.623,0.402-2.442,0.048
	c-0.372-0.161-0.732-0.375-0.817-0.802c-0.106-0.539,0.346-0.618,0.707-0.784c0.167-0.078,0.283-0.268,0.423-0.406
	c-0.014,0.774,0.104,1.375,1.14,1.289C309.102,457.815,309.594,457.968,309.714,458.502z"/>
<path fill-rule="evenodd" clip-rule="evenodd" fill="#756D6E" d="M289.132,319.766c1.366,0.886,2.028,2.383,3.065,3.554
	c0.23,0.26,0.499,0.681,0.004,1.021c-1.038-1.355-2.075-2.71-3.112-4.065C289.104,320.105,289.118,319.936,289.132,319.766z"/>
<path fill-rule="evenodd" clip-rule="evenodd" fill="#646161" d="M305.407,459.51c0.021-0.429,0.043-0.856,0.065-1.299
	c0.507-0.032,0.684,0.581,1.161,0.521c0.108,0.188,0.287,0.228,0.483,0.232c0.803,0.197,1.605,0.195,2.409,0.001
	c0.065,0.001,0.131,0.003,0.197,0.003c0.105,0.435,0.066,0.8-0.448,0.939c-1.122,0.021-2.245-0.008-3.367,0.035
	C305.627,459.93,305.49,459.75,305.407,459.51z"/>
<path fill-rule="evenodd" clip-rule="evenodd" fill="#BBBABA" d="M307.585,452.249c-0.154-0.105-0.417-0.33-0.449-0.301
	c-0.634,0.573-1.282,0.161-1.924,0.063c0.056-0.825,0.602-1.024,1.299-0.979C307.255,451.078,307.651,451.469,307.585,452.249z"/>
<path fill-rule="evenodd" clip-rule="evenodd" fill="#ABABAB" d="M292.472,325.264c0.956,0.552,0.652,1.121,0.076,1.77
	c-0.389,0.438-0.573,0.091-0.827-0.101C291.971,326.376,292.221,325.82,292.472,325.264z"/>
<path fill-rule="evenodd" clip-rule="evenodd" fill="#4E4646" d="M305.907,459.942c1.118-0.447,2.241-0.385,3.367-0.035
	C308.156,460.336,307.033,460.301,305.907,459.942z"/>
<path fill-rule="evenodd" clip-rule="evenodd" fill="#4E4646" d="M292.723,459.914c1.116-0.384,2.233-0.371,3.351-0.009
	C294.958,460.291,293.841,460.358,292.723,459.914z"/>
<path fill-rule="evenodd" clip-rule="evenodd" fill="#C4C2C2" d="M320.301,316.137c0.962-1.005,1.527-1.003,2.448,0.01
	c-0.802,0.226-1.607,0.181-2.415,0.028L320.301,316.137z"/>
<path fill-rule="evenodd" clip-rule="evenodd" fill="#E8E5E5" d="M262.241,372.803c1.439-0.399,2.879-0.398,4.318-0.001
	C265.12,372.802,263.681,372.803,262.241,372.803z"/>
<path fill-rule="evenodd" clip-rule="evenodd" fill="#E9E7E8" d="M281.187,379.767c0.919,0.566,1.486,1.845,2.891,1.432
	C282.671,381.728,281.957,381.374,281.187,379.767z"/>
<path fill-rule="evenodd" clip-rule="evenodd" fill="#BAB9B9" d="M320.334,316.175c0.806-0.009,1.61-0.019,2.415-0.028
	c0.063,0.085,0.126,0.169,0.188,0.254c-0.874,0.076-1.778-0.2-2.619,0.238C320.323,316.484,320.329,316.33,320.334,316.175z"/>
<path fill-rule="evenodd" clip-rule="evenodd" fill="#ABABAB" d="M283.607,332.969c-0.008,0.191-0.046,0.368-0.226,0.477
	c0.016-0.652-0.238-1.333,0.205-1.94c0.006,0.167,0.012,0.333,0.019,0.5C283.795,332.326,283.904,332.647,283.607,332.969z"/>
<path fill-rule="evenodd" clip-rule="evenodd" fill="#E8E5E5" d="M266.559,372.801c0.639,0.098,1.331-0.234,1.924,0.235
	c-0.08,0.093-0.161,0.099-0.244,0.005C267.68,372.953,267.066,373.251,266.559,372.801z"/>
<path fill-rule="evenodd" clip-rule="evenodd" fill="#7F7D7D" d="M321.761,453.184c0.56-0.362,1.119-0.362,1.678,0
	C322.88,453.184,322.32,453.184,321.761,453.184z"/>
<path fill-rule="evenodd" clip-rule="evenodd" fill="#E8E5E5" d="M260.561,373.041c0.506-0.46,1.122-0.151,1.682-0.239
	C261.734,373.251,261.12,372.954,260.561,373.041z"/>
<path fill-rule="evenodd" clip-rule="evenodd" fill="#E9E7E8" d="M279.521,378.32c0.487,0.024,0.758,0.329,0.953,0.733
	C280.001,379.01,279.729,378.706,279.521,378.32z"/>
<path fill-rule="evenodd" clip-rule="evenodd" fill="#E8E5E5" d="M255.52,374.48c0.316-0.383,0.736-0.502,1.213-0.472
	C256.406,374.365,255.993,374.5,255.52,374.48z"/>
<path fill-rule="evenodd" clip-rule="evenodd" fill="#E8E5E5" d="M253.84,375.202c0.312-0.383,0.731-0.498,1.203-0.481
	C254.727,375.096,254.311,375.216,253.84,375.202z"/>
<path fill-rule="evenodd" clip-rule="evenodd" fill="#E8E5E5" d="M259.36,373.28c0.337-0.397,0.795-0.184,1.201-0.239
	C260.223,373.432,259.766,373.229,259.36,373.28z"/>
<path fill-rule="evenodd" clip-rule="evenodd" fill="#E9E7E8" d="M268.239,373.041c0.082-0.001,0.163-0.003,0.244-0.004
	c0.33,0.037,0.706-0.105,0.957,0.243C269.034,373.227,268.577,373.433,268.239,373.041z"/>
<path fill-rule="evenodd" clip-rule="evenodd" fill="#26212B" d="M284.032,334.621c3.156-0.143,6.32,0.167,9.473-0.184
	c0.12-0.013,0.258,0.142,0.388,0.218c-0.511,0.32-1.083,0.211-1.636,0.235c-2.269,0.097-4.549-0.206-6.811,0.207
	C284.918,335.193,284.409,335.057,284.032,334.621z"/>
<path fill-rule="evenodd" clip-rule="evenodd" fill="#9F9F9F" d="M230.308,380.455c0.063-0.838,0.512-1.507,0.952-2.18
	c0.514,0.561,0.287,1.197,0.172,1.814c-0.094,0.5-0.385,0.97-0.229,1.567c0.374-0.195,0.419-0.571,0.552-0.866
	c2.852-6.295,7.099-11.436,12.722-15.45c1.367-0.977,2.913-1.668,4.239-2.709c3.397-1.874,7.051-2.99,10.866-3.568
	c2.048-0.31,4.11-0.567,6.194-0.504c8.147,0.247,15.519,2.74,22.035,7.657c1.304,0.984,2.48,2.134,3.707,3.215
	c0.626,0.552,1.297,0.888,2.076,1.083c0.345,0.606-0.232,0.595-0.499,0.627c-0.843,0.102-1.463,0.588-2.106,1.06
	c-2.057,1.507-4.044,3.106-6.093,4.624c-1.012,0.75-1.606,0.756-2.433-0.074c-3.905-3.924-8.653-6.16-14.059-7.104
	c-0.665-0.211-1.354-0.081-2.03-0.137c-0.188-0.008-0.373-0.039-0.556-0.083c-0.845-0.22-1.692-0.202-2.542-0.023
	c-0.178,0.049-0.36,0.078-0.543,0.093c-4.664,0.173-8.841,1.739-12.707,4.306c-2.424,1.609-4.391,3.652-6.131,5.947
	c-2.762,3.73-4.136,7.919-4.398,12.549c-0.214,3.798,0.54,7.292,2.618,10.489c0.195,0.3,0.213,0.688,0.448,0.975
	c0.39,0.806,1.017,1.493,1.211,2.397c-0.539,0.148-0.678-0.302-0.878-0.615c-0.452-0.708-1.077-1.258-1.624-1.997
	c-0.131,2.301,3.901,9.104,9.265,12.291c0.557,0.388,1.097,0.804,1.779,0.963c2.001,0.906,4.002,1.813,6.157,2.307
	c5.71,1.311,11.245,0.854,16.608-1.582c2.727-1.239,5.142-2.876,7.197-5.065c1.22-1.3,1.498-1.304,2.895-0.161
	c1.543,1.264,3.069,2.549,4.598,3.83c0.682,0.571,1.448,0.985,2.191,1.448c0.104,0.146,0.114,0.301-0.025,0.421
	c-3.958,3.417-8.038,6.642-13.016,8.507c-1.193,0.447-2.419,0.796-3.601,1.271c-0.615,0.045-1.213,0.186-1.808,0.348
	c-0.107,0.039-0.217,0.067-0.328,0.091c-0.4,0.064-0.805,0.103-1.189,0.251c-0.124,0.041-0.248,0.067-0.376,0.085
	c-4.159,0.691-8.316,0.704-12.471,0.007c-0.124-0.01-0.246-0.036-0.365-0.07c-0.375-0.144-0.77-0.208-1.166-0.263
	c-0.107-0.019-0.212-0.048-0.315-0.08c-0.607-0.181-1.224-0.32-1.854-0.4c-0.106-0.021-0.208-0.051-0.311-0.086
	c-0.454-0.172-0.914-0.32-1.407-0.327c-0.511-0.052-0.996-0.181-1.419-0.486c-0.32-0.3-0.701-0.465-1.138-0.503
	c-0.216-0.041-0.414-0.124-0.585-0.264c-0.399-0.362-0.887-0.555-1.387-0.725c-0.099-0.037-0.192-0.085-0.283-0.139
	c-0.377-0.281-0.782-0.5-1.257-0.567c-0.799-0.245-1.469-0.712-2.121-1.214c-0.437-0.543-1.081-0.823-1.607-1.254
	c-0.265-0.24-0.521-0.491-0.833-0.673c-0.088-0.053-0.17-0.114-0.25-0.179c-0.262-0.247-0.556-0.444-0.894-0.576
	c-0.25-0.123-0.439-0.313-0.601-0.535c-1.083-1.248-2.245-2.416-3.501-3.489c-0.318-0.223-0.602-0.478-0.764-0.842
	c-0.165-0.49-0.403-0.938-0.767-1.313c-0.067-0.078-0.127-0.162-0.182-0.248c-0.192-0.374-0.507-0.635-0.831-0.889
	c-0.845-1.108-1.723-2.197-2.143-3.562c-0.102-0.547-0.34-1.026-0.724-1.434c-0.375-0.467-0.644-0.981-0.728-1.582
	c-0.193-1.302-0.576-2.534-1.342-3.627c-0.339-0.809-0.558-1.646-0.625-2.522c-0.31-3.165-0.929-6.308-0.718-9.506
	C229.269,387.598,229.335,383.972,230.308,380.455z"/>
<path fill-rule="evenodd" clip-rule="evenodd" fill="#5F5D5D" d="M294.883,371.371c-1.428,1.048-2.988,1.89-4.409,2.968
	c-1.582,1.2-3.133,2.442-4.73,3.621c-1.815,1.339-2.723,1.485-4.283-0.164c-3.675-3.884-8.31-6.119-13.559-6.85
	c-5.315-0.74-10.422,0.155-15.156,2.819c-1.877,1.057-3.428,2.471-5.002,3.945c-2.64,2.473-4.357,5.417-5.646,8.708
	c-0.616,1.575-0.9,3.217-0.961,4.882c-0.078,2.154-0.022,4.313-0.024,6.47c-0.482-0.012-0.458-0.404-0.542-0.717
	c-0.091-1.95-0.063-3.902-0.167-5.857c-0.114-2.112,0.491-4.194,1.337-6.147c3.7-8.541,10.246-13.42,19.371-14.91
	c2.737-0.447,5.476-0.17,8.202,0.195c4.791,1.027,9.047,3.063,12.506,6.616c1.35,1.387,2.071,1.4,3.669,0.108
	c2.079-1.681,4.248-3.246,6.377-4.861C292.71,371.556,293.638,370.753,294.883,371.371z"/>
<path fill-rule="evenodd" clip-rule="evenodd" fill="#727171" d="M227.907,390.076c0.12-0.633-0.222-1.329,0.253-1.916
	c0.626,0.438,0.573,1.115,0.548,1.739c-0.143,3.647,0.255,7.241,1.039,10.794c0.627,2.842,1.747,5.499,2.92,8.158
	c1.208,2.738,2.903,5.156,4.784,7.384c2.251,2.667,4.778,5.137,7.879,6.889c1.052,1.1,2.498,1.541,3.795,2.206
	c5.464,2.795,11.329,3.845,17.42,3.775c1.831-0.021,3.633-0.443,5.466-0.492c0.349,0.178,0.546,0.414,0.307,0.813
	c-2.833,0.527-5.697,0.545-8.564,0.496c-4.846-0.082-9.428-1.269-13.82-3.271c-0.614-0.28-1.167-0.701-1.854-0.813
	c-8.219-4.234-13.916-10.741-17.433-19.246c-1.374-3.32-2.219-6.779-2.962-10.274c0-1.679-0.001-3.357-0.001-5.035
	C227.965,390.918,227.652,390.445,227.907,390.076z"/>
<path fill-rule="evenodd" clip-rule="evenodd" fill="#868585" d="M240.88,397.041c0.009,0.265-0.031,0.546,0.234,0.729
	c-0.02,1.59,0.749,3.011,0.969,4.549c-0.315,0.074-0.424-0.165-0.524-0.373c-1.21-2.531-2.111-5.094-2.171-7.995
	c-0.079-3.808,0.764-7.347,2.273-10.773c0.497-1.128,1.212-2.149,1.894-3.178c2.105-2.78,4.527-5.202,7.549-7.017
	c3.651-2.193,7.563-3.459,11.818-3.661c1.061-0.175,2.12-0.182,3.179,0c0.19,0.001,0.382,0,0.572,0.007
	c3.767,0.385,7.332,1.424,10.624,3.325c1.905,1.101,3.635,2.437,5.208,3.975c0.955,0.934,1.227,0.94,2.321,0.115
	c2.281-1.722,4.523-3.494,6.834-5.177c0.539-0.392,1.068-0.69,1.755-0.517c0.07,0.107,0.104,0.264,0.006,0.32
	c-2.923,1.667-5.387,3.96-8.093,5.923c-1.654,1.2-2.022,1.188-3.449-0.217c-3.416-3.363-7.472-5.538-12.153-6.555
	c-0.116-0.002-0.229-0.021-0.339-0.054c-0.39-0.124-0.801-0.025-1.195-0.113c-0.111-0.039-0.22-0.083-0.327-0.13
	c-0.651-0.136-1.311-0.021-1.964-0.079c-0.235-0.037-0.462-0.119-0.703-0.12c-0.469-0.154-0.937-0.133-1.405,0.007
	c-2.511,0.132-4.996,0.442-7.369,1.313c-8.237,3.025-13.574,8.712-15.694,17.284c-0.573,2.316-0.292,4.678-0.044,7.015
	C240.735,396.105,240.614,396.606,240.88,397.041z"/>
<path fill-rule="evenodd" clip-rule="evenodd" fill="#BDB9B9" d="M276.832,414.779c1.417-1.15,3.005-2.089,4.28-3.413
	c0.661-0.687,1.286-1.413,1.879-2.159c0.315-0.398,0.563-0.487,0.969-0.142c3.002,2.548,6.014,5.085,9.022,7.626
	c-0.531,0.691-1.28,0.747-2.156,0.033c-0.987-0.806-2.015-1.565-2.956-2.422c-0.974-0.887-2.021-1.68-3.044-2.503
	c-1.043-0.839-1.752-0.734-2.619,0.319c-1.407,1.711-3.177,3.001-4.953,4.286c-0.953,0.596-1.967,1.065-3.006,1.489
	c-0.246,0.029-0.485,0.027-0.697-0.124c-0.081-0.093-0.112-0.201-0.095-0.322c1.629-0.959,3.378-1.716,4.843-2.959
	c0.423-0.358,0.792-0.852,1.339-1.054c-0.588,0.246-0.946,0.847-1.523,1.116C277.702,414.744,277.344,415.175,276.832,414.779z"/>
<path fill-rule="evenodd" clip-rule="evenodd" fill="#919090" d="M272.087,428.742c-3.094,0.545-6.18,0.842-9.347,0.549
	c-3.269-0.303-6.461-0.847-9.536-1.972c-2.835-1.036-5.647-2.15-8.012-4.116c0.162-0.156,0.325-0.135,0.489-0.003
	c0.686,0.462,1.312,1.03,2.16,1.201c0.361,0.305,0.829,0.432,1.201,0.718l-0.001-0.001c0.557,0.247,1.112,0.498,1.678,0.722
	c0.105,0.19,0.285,0.233,0.481,0.24c0.376,0.218,0.815,0.281,1.199,0.48c0.417,0.348,0.915,0.456,1.441,0.48
	c0.438,0.285,0.966,0.3,1.44,0.479l0-0.002c0.695,0.273,1.446,0.291,2.159,0.481c0.357,0.294,0.84-0.041,1.2,0.24
	c4.48,0.857,8.96,0.857,13.44,0c0.36-0.281,0.843,0.054,1.2-0.24c0.635-0.182,1.308-0.209,1.92-0.479
	c3.289-1.09,6.485-2.387,9.43-4.24c1.718-1.081,3.4-2.22,4.827-3.675c0.76-0.774,1.587-1.428,2.546-1.923
	c0.066-0.09,0.15-0.156,0.25-0.205c0.465-0.134,0.917-0.335,1.421-0.269c0.092,0.072,0.184,0.145,0.275,0.217
	c0.059,0.544-0.445,0.563-0.717,0.618c-1.042,0.215-1.737,0.902-2.47,1.582c-5.045,4.674-10.92,7.772-17.642,9.256
	C272.749,428.964,272.41,428.943,272.087,428.742z"/>
<path fill-rule="evenodd" clip-rule="evenodd" fill="#CEC8C8" d="M273.521,417.44c-0.002,0.079-0.003,0.158-0.004,0.237
	c-0.92,0.798-2.097,0.936-3.207,1.247c-2.138,0.179-4.243,0.601-6.413,0.55c-3.75-0.088-7.211-1.121-10.518-2.802
	c-0.358-0.182-0.649-0.462-0.965-0.702c-0.28-0.214-0.676-0.518-0.441-0.866c0.294-0.437,0.603,0.07,0.903,0.177
	c3.837,1.769,7.813,2.945,12.092,2.848c2.165-0.05,4.273-0.473,6.376-0.938c1.342-0.337,2.635-0.793,3.856-1.461
	c0.289-0.158,0.718-0.651,0.997-0.088c0.254,0.512-0.376,0.601-0.656,0.815C274.938,416.92,274.142,417.004,273.521,417.44z"/>
<path fill-rule="evenodd" clip-rule="evenodd" fill="#919090" d="M245.681,423.2c-0.163,0.001-0.326,0.002-0.489,0.003
	c-1.77-0.573-3.029-1.908-4.348-3.084c-4.903-4.369-8.309-9.77-10.413-15.961c-1.458-4.286-2.164-8.722-2.039-13.271
	c0.025-0.915,0.094-1.84-0.232-2.728c0.092-1.756,0.418-3.456,1.196-5.049c0.545,0.548,0.141,1.221,0.24,1.827
	c-0.004,0.208-0.004,0.418-0.069,0.619c-0.332,0.933-0.098,1.899-0.168,2.848c0.036,0.557-0.052,1.104-0.147,1.649
	c-0.153,1.45-0.141,2.9-0.008,4.351c0.169,2.175,0.381,4.345,0.875,6.476c0.161,0.8,0.322,1.599,0.483,2.397
	c0.689,1.117,1.016,2.379,1.438,3.602c0.102,0.55,0.323,1.039,0.718,1.442c0.208,0.496,0.37,1.014,0.72,1.438
	c0.379,1.405,1.351,2.454,2.161,3.601c0.212,0.341,0.499,0.626,0.72,0.96c0.367,0.448,0.64,0.96,0.96,1.439
	c0.158,0.322,0.397,0.563,0.719,0.722c1.1,1.3,2.299,2.5,3.6,3.599c0.16,0.16,0.32,0.319,0.48,0.479
	c0.332,0.224,0.62,0.508,0.96,0.721c0.332,0.224,0.622,0.505,0.96,0.72C244.617,422.321,245.254,422.612,245.681,423.2z"/>
<path fill-rule="evenodd" clip-rule="evenodd" fill="#D1CBCB" d="M251.451,359.629c2.777-1.255,5.706-2.008,8.709-2.376
	c5.899-0.724,11.716-0.259,17.368,1.66c1.335,0.453,2.597,1.121,3.893,1.69c-0.242,0.667-0.755,0.459-1.163,0.292
	c-3.171-1.304-6.521-1.894-9.869-2.493c-0.771-0.271-1.573-0.101-2.358-0.168c-0.204-0.009-0.404-0.035-0.601-0.088
	c-1.678-0.232-3.357-0.185-5.036-0.021c-0.191,0.054-0.387,0.084-0.584,0.098c-0.571,0.041-1.153-0.045-1.71,0.158
	c-0.126,0.038-0.254,0.061-0.384,0.076c-2.187,0.206-4.292,0.781-6.404,1.347C252.729,359.959,251.983,360.54,251.451,359.629z"/>
<path fill-rule="evenodd" clip-rule="evenodd" fill="#ABA9A9" d="M293.68,370.64c-1.587,0.319-2.399-0.943-3.296-1.786
	c-5.005-4.705-10.882-7.735-17.554-9.171c-2.866-0.616-5.822-0.944-8.762-0.777c-5.352,0.305-10.527,1.391-15.268,4.054
	c-1.03,0.234-1.703,1.264-2.834,1.273c-0.203-0.845,0.629-0.831,0.995-1.206c0.398-0.242,0.776-0.516,1.164-0.776
	c1.77-0.834,3.562-1.613,5.433-2.199c1.553-0.367,3.09-0.787,4.652-1.118c4.115-0.873,8.243-0.795,12.383-0.288
	c3.266,0.4,6.421,1.222,9.425,2.58c2.188,0.988,4.258,2.202,6.344,3.383c0.102,0.054,0.197,0.117,0.289,0.186
	c1.816,1.482,3.724,2.861,5.329,4.584c0.576,0.619,1.253,0.592,1.977,0.487c0.205,0.116,0.225,0.318,0.243,0.521
	C294.093,370.613,293.951,370.76,293.68,370.64z"/>
<path fill-rule="evenodd" clip-rule="evenodd" fill="#BBB4B5" d="M281.197,428.488c-0.308,0.167-0.615,0.333-0.922,0.499
	c-1.91,0.697-3.824,1.381-5.793,1.896l0.002-0.001c-0.814,0.095-1.55,0.535-2.385,0.538c-0.472,0.171-1-0.103-1.458,0.179
	l-0.116,0.006h-0.117c-0.697,0.307-1.473-0.098-2.167,0.237l-0.117,0.004l-0.117-0.001c-1.765,0.181-3.529,0.181-5.293,0
	l-0.117,0.001l-0.117-0.004c-0.694-0.335-1.47,0.069-2.167-0.237h-0.117l-0.116-0.006c-0.442-0.311-0.997,0.058-1.442-0.237h0.001
	c-0.359-0.298-0.842,0.036-1.207-0.237c-2.009-0.249-3.92-0.836-5.76-1.666c-0.363-0.256-0.813-0.297-1.201-0.492
	c-3.775-1.551-7.241-3.617-10.267-6.36c-0.52-0.472-1.386-0.704-1.454-1.608c1.757,1.305,3.359,2.796,5.21,3.996
	c7.47,4.844,15.641,6.942,24.492,6.327c4.374-0.305,8.569-1.443,12.585-3.216c0.363-0.161,0.745-0.281,1.117-0.42
	C282.222,428.414,281.482,428.181,281.197,428.488z"/>
<path fill-rule="evenodd" clip-rule="evenodd" fill="#A4A4A4" d="M245.919,364.16c1.089-0.09,1.74-1.233,2.88-1.2
	c-2.375,1.578-4.836,3.006-7.019,4.89c-2.922,2.522-5.361,5.414-7.417,8.65c-1.026,1.615-1.868,3.333-2.609,5.097
	c-0.129,0.307-0.287,0.691-0.616,0.625c-0.452-0.089-0.378-0.577-0.324-0.908c0.165-1.011,0.646-1.974,0.444-3.04
	c0.287-0.849,0.663-1.652,1.218-2.363c0.42,0.315,0.117,0.829,0.439,1.435c2.282-3.743,5.027-6.946,8.162-9.813
	c0.081-0.074,0.169-0.139,0.26-0.2c0.524-0.289,0.909-0.739,1.326-1.152c0.237-0.23,0.494-0.432,0.796-0.568
	c0.601-0.27,1.075-0.72,1.589-1.113C245.313,364.321,245.522,363.996,245.919,364.16z"/>
<path fill-rule="evenodd" clip-rule="evenodd" fill="#656464" d="M227.686,396.317c0.873,1.893,1.086,3.97,1.66,5.947
	c1.531,5.275,4.015,10.045,7.445,14.334c2.911,3.639,6.569,6.35,10.574,8.641c0.277,0.159,0.587,0.267,0.716,0.599
	c-1.225-0.008-2.007-0.94-2.936-1.501c-6.986-4.215-11.681-10.364-14.749-17.828c-0.981-2.387-1.848-4.822-2.361-7.359
	C227.848,398.22,227.799,397.262,227.686,396.317z"/>
<path fill-rule="evenodd" clip-rule="evenodd" fill="#727171" d="M272.087,428.742c3.844-0.617,7.436-1.966,10.841-3.814
	c3.157-1.714,6.014-3.845,8.566-6.379c0.68-0.675,1.74-0.52,2.454-1.122c0.7,0.284,0.075,0.552-0.073,0.593
	c-2.481,0.686-3.844,2.879-5.781,4.292c-4.574,3.338-9.527,5.769-15.095,6.895c-0.232,0.048-0.454,0.146-0.68,0.221
	C272.242,429.199,272.165,428.971,272.087,428.742z"/>
<path fill-rule="evenodd" clip-rule="evenodd" fill="#C6C1C1" d="M267.521,357.92c0.16,0,0.32,0,0.479,0
	c0.774,0.341,1.625-0.089,2.4,0.24c3.362,0.412,6.653,1.123,9.808,2.388c0.402,0.161,0.789,0.443,1.212,0.055
	c2.046,0.686,3.814,1.866,5.545,3.112c0.239,0.141,0.579,0.289,0.465,0.601c-0.138,0.378-0.526,0.299-0.824,0.185
	c-0.893-0.343-1.72-0.828-2.578-1.244c-0.097-0.046-0.188-0.104-0.276-0.166c-0.356-0.294-0.756-0.507-1.201-0.637
	c-0.096-0.034-0.186-0.078-0.272-0.131c-0.242-0.188-0.52-0.303-0.814-0.386c-0.1-0.042-0.194-0.093-0.287-0.148
	c-0.726-0.334-1.431-0.714-2.225-0.877c-3.495-1.422-7.154-2.099-10.893-2.391c-2.38-0.186-4.761-0.195-7.135,0.114
	c-0.34-0.014-0.689,0.048-1.01-0.121c-0.128-0.096-0.153-0.214-0.076-0.354c0.08,0,0.16,0,0.24,0
	c0.527-0.312,1.155,0.084,1.68-0.239c0.16,0,0.32,0,0.48,0C264,357.73,265.76,357.73,267.521,357.92z"/>
<path fill-rule="evenodd" clip-rule="evenodd" fill="#C2BDBD" d="M259.84,358.399c0.32,0.001,0.641,0.001,0.961,0.002
	c0.039,0.182-0.025,0.315-0.213,0.332c-2.476,0.225-4.852,0.902-7.226,1.589c-1.76,0.721-3.521,1.441-5.281,2.162
	c-0.406,0.282-0.887,0.452-1.243,0.812c-1.434,0.729-2.672,1.768-4.065,2.563c-0.373,0.198-0.696,0.504-1.112,0.597
	c-0.413,0.091-0.923,0.32-1.039-0.402c1.404-1.266,2.83-2.503,4.575-3.295c1.199-0.173,2.162-0.915,3.225-1.395
	c3.363-1.516,6.931-2.273,10.496-3.06C259.207,358.239,259.552,358.187,259.84,358.399z"/>
<path fill-rule="evenodd" clip-rule="evenodd" fill="#979797" d="M243.76,380c-1.688,2.677-3.132,5.479-3.689,8.618
	c-0.698,3.926-0.844,7.843,1.057,11.545c0.361,0.702,0.332,1.574,0.956,2.156c0.196,0.469,0.531,0.891,0.48,1.441
	c-1.965-2.518-3.172-5.312-3.379-8.546c-0.27-4.214,0.48-8.228,2.22-12.045c0.598-1.312,1.265-2.632,2.356-3.651
	C243.914,379.679,243.894,379.84,243.76,380z"/>
<path fill-rule="evenodd" clip-rule="evenodd" fill="#737171" d="M269.443,370.396c1.725,0.002,3.263,0.709,4.801,1.347
	c3.017,1.25,5.665,3.083,8.007,5.354c1.177,1.141,1.457,1.169,2.731,0.196c2.372-1.811,4.739-3.627,7.125-5.42
	c0.404-0.304,0.886-0.506,1.332-0.754c0.385-0.222,0.75-0.494,1.226-0.491c0.246,0.196,0.641,0.349,0.219,0.742
	c-1.601-0.026-2.728,0.938-3.896,1.838c-2.009,1.551-4.014,3.11-6.062,4.608c-1.17,0.856-1.954,0.769-2.934-0.277
	c-3.437-3.668-7.718-5.782-12.552-6.899c-0.06-0.055-0.08-0.109-0.059-0.164C269.402,370.423,269.422,370.396,269.443,370.396z"/>
<path fill-rule="evenodd" clip-rule="evenodd" fill="#939393" d="M294.665,370.628c-0.316,0.396-0.75,0.494-1.226,0.491
	c-1.063-0.176-1.696,0.613-2.409,1.138c-2.112,1.557-4.194,3.155-6.253,4.782c-0.84,0.664-1.453,0.672-2.257-0.125
	c-3.93-3.899-8.652-6.292-14.118-7.212c-0.535-0.09-1.131,0.192-1.604-0.26c0.561-0.185,1.122-0.183,1.683-0.001
	c4.411,0.56,8.325,2.309,11.827,5.004c0.816,0.628,1.601,1.319,2.3,2.073c0.706,0.761,1.33,0.692,2.075,0.119
	c1.982-1.524,4.02-2.98,5.954-4.562c0.921-0.753,1.938-1.152,3.044-1.435c0.173-0.083,0.346-0.167,0.519-0.251
	C294.394,370.39,294.558,370.453,294.665,370.628z"/>
<path fill-rule="evenodd" clip-rule="evenodd" fill="#C0BCBC" d="M252.875,415.281c-0.271,0.076-0.491-0.281-0.884-0.042
	c1.717,1.489,3.73,2.257,5.801,2.901c3.717,1.157,7.481,1.339,11.295,0.531c0.421-0.089,0.875-0.023,1.313-0.03
	c-0.048,0.654-0.615,0.55-0.993,0.618c-4.896,0.891-9.685,0.576-14.325-1.336c-1.633-0.672-3.133-1.579-4.61-2.528
	c-0.115-0.054-0.222-0.121-0.323-0.195c-0.832-0.746-1.604-1.554-2.383-2.355c-0.295-0.304-0.783-0.694-0.414-1.106
	c0.454-0.506,0.723,0.175,1.052,0.383c0.134,0.084,0.258,0.187,0.388,0.28c0.083,0.076,0.165,0.153,0.248,0.23
	c0.326,0.233,0.619,0.509,0.955,0.729C250.907,414.071,252.094,414.372,252.875,415.281z"/>
<path fill-rule="evenodd" clip-rule="evenodd" fill="#A5A5A5" d="M250.48,416.001c-1.716-0.728-3.065-1.992-4.309-3.288
	c-2.148-2.236-3.882-4.799-5.025-7.714c-0.233-0.594-0.788-1.478-0.25-1.808c0.697-0.427,0.827,0.732,1.321,1.054
	c0.73,0.475,0.833,1.444,1.557,1.913c0.481,0.591,0.928,1.203,1.212,1.918c-0.512,0.176-0.694-0.253-0.958-0.527
	c-0.29-0.3-0.45-0.745-1.058-0.881c0.717,2,1.953,3.542,3.263,5.035c1.294,1.475,2.871,2.645,4.299,3.976
	c0.009,0.056,0.018,0.112,0.026,0.169C250.532,415.898,250.506,415.949,250.48,416.001z"/>
<path fill-rule="evenodd" clip-rule="evenodd" fill="#ABA9A9" d="M241.36,367.52c-0.766,0.805-1.492,1.652-2.303,2.408
	c-2.226,2.073-3.876,4.592-5.612,7.051c-0.201,0.286-0.287,0.909-0.796,0.716c-0.476-0.18-0.193-0.689-0.174-1.067
	c0.012-0.238,0.002-0.477,0.002-0.716c0.493-1.126,1.152-2.148,1.928-3.097c0.448,0.324,0.796,0.342,1.199-0.156
	c1.375-1.699,3.032-3.131,4.559-4.687C240.47,367.66,240.775,367.174,241.36,367.52z"/>
<path fill-rule="evenodd" clip-rule="evenodd" fill="#B4B1B1" d="M241.36,367.52c-0.506,0-0.763,0.394-1.055,0.703
	c-1.574,1.672-3.361,3.137-4.768,4.975c-0.627,0.821-0.956,0.344-1.133-0.383c0.814-1.317,1.83-2.474,2.881-3.603
	c0.558,0.165,0.948-0.101,1.39-0.42c1.173-0.849,2.006-2.156,3.482-2.595c0.116,0.033,0.193,0.106,0.234,0.219
	C242.213,366.938,241.76,367.204,241.36,367.52z"/>
<path fill-rule="evenodd" clip-rule="evenodd" fill="#ACABAB" d="M250.48,415.76c-2.883-1.852-5.094-4.364-7.006-7.165
	c-0.218-0.319-0.338-0.713-0.469-1.084c-0.158-0.447-0.799-0.995-0.199-1.345c0.489-0.285,0.781,0.491,1.143,0.807
	c0.377,0.331,0.487,0.924,1.038,1.104c0.487,0.5,0.958,1.013,1.232,1.67c-0.405,0.265-0.628-0.224-1.09-0.245
	c1.342,2.253,3.167,3.951,5.112,5.539c0.22,0.211,0.608,0.302,0.517,0.732C250.661,415.847,250.569,415.843,250.48,415.76z"/>
<path fill-rule="evenodd" clip-rule="evenodd" fill="#CBC5C5" d="M259.84,358.399c-3.83,0.413-7.454,1.544-10.941,3.143
	c-1.08,0.495-2.232,0.835-3.227,1.523c-0.223,0.154-0.691,0.37-0.476-0.308c1.93-1.354,3.982-2.461,6.255-3.128
	c0.771,0.468,1.438-0.077,2.129-0.246c2.069-0.505,4.107-1.152,6.26-1.224C259.84,358.24,259.84,358.32,259.84,358.399z"/>
<path fill-rule="evenodd" clip-rule="evenodd" fill="#C0BCBC" d="M283.84,362.96c1.211,0.267,2.158,1.196,3.398,1.426
	c0.083-0.346-0.212-0.454-0.273-0.672c1.663,0.792,2.892,2.127,4.21,3.351c0.433,0.402,0.85,0.822,1.274,1.234
	c-0.568,0.614-0.785,0.611-1.583-0.02c-1.451-1.147-2.828-2.391-4.387-3.399c-0.663-0.502-1.421-0.844-2.134-1.263
	C284.093,363.467,283.711,363.409,283.84,362.96z"/>
<path fill-rule="evenodd" clip-rule="evenodd" fill="#B2AFAF" d="M277.12,416.24c1.347-1.279,2.958-2.23,4.244-3.605
	c2.139-2.288,2.208-2.26,4.658-0.298c1.607,1.287,3.158,2.644,4.73,3.975c0.673,0.57,1.367,0.958,2.23,0.38
	c0.074,0.01,0.141,0.037,0.2,0.084c0.184,0.772-0.457,0.644-0.853,0.78c-0.688,0.079-1.206-0.24-1.727-0.654
	c-1.998-1.587-3.915-3.272-5.906-4.866c-0.989-0.792-1.241-0.782-2.064,0.176c-1.285,1.496-2.813,2.703-4.445,3.786
	C277.87,416.206,277.561,416.542,277.12,416.24z"/>
<path fill-rule="evenodd" clip-rule="evenodd" fill="#BBB5B5" d="M281.197,428.488c0.215-0.392,0.8-0.341,0.958-0.802
	c4.518-2.333,8.527-5.336,11.98-9.074c-0.288,0.999-1.019,1.678-1.73,2.36c-3.006,2.889-6.36,5.29-10.079,7.178
	C281.971,428.331,281.618,428.525,281.197,428.488z"/>
<path fill-rule="evenodd" clip-rule="evenodd" fill="#989797" d="M230.08,400.88c-0.797-2.089-0.974-4.271-0.96-6.48
	c-0.187-1.44-0.187-2.88,0-4.32c0-0.56,0-1.12,0.001-1.68c0.337-0.939-0.085-1.94,0.24-2.88c0-0.16,0-0.32,0-0.48
	c0.334-0.861-0.08-1.789,0.235-2.651c0.083-0.701,0.267-1.366,0.712-1.934c0.061,1.751-0.438,3.445-0.54,5.18
	c-0.197,3.351-0.713,6.689-0.21,10.062C229.813,397.412,229.911,399.151,230.08,400.88z"/>
<path fill-rule="evenodd" clip-rule="evenodd" fill="#B6B3B3" d="M250.24,415.04c-2.445-1.461-4.357-3.392-5.643-6.11
	c0.914-0.063,1.054,0.735,1.621,0.816c0.893,0.851,1.836,1.653,2.573,2.655c-0.543,0.054-0.72-0.614-1.419-0.646
	C248.101,413.154,249.471,413.851,250.24,415.04z"/>
<path fill-rule="evenodd" clip-rule="evenodd" fill="#B4B1B1" d="M286.48,364.88c1.768,0.634,2.925,2.139,4.455,3.109
	c0.441,0.28,0.855,0.988,1.515,0.31c0.691,0.341,1.103,0.951,1.505,1.568c-0.481,0.455-1.095,0.702-1.585,0.205
	C290.526,368.203,288.367,366.696,286.48,364.88z"/>
<path fill-rule="evenodd" clip-rule="evenodd" fill="#BBB7B7" d="M242.319,366.319c-1.604,0.63-2.562,2.083-3.875,3.086
	c-0.601,0.459-0.857,0.4-1.158-0.193c0.935-1.24,2.164-2.169,3.335-3.159c0.923,0.794,1.42-0.458,2.179-0.453
	C242.928,366.033,242.662,366.201,242.319,366.319z"/>
<path fill-rule="evenodd" clip-rule="evenodd" fill="#C3BEBE" d="M273.521,417.44c0.343-0.646,1.119-0.539,1.617-0.926
	c0.323-0.25,0.728-0.405,1.046-1.012c-1.731,0.679-3.131,1.662-4.841,1.689c1.83-0.805,3.66-1.608,5.489-2.413
	c1.204-0.099,1.855-1.269,2.983-1.531C278.063,415.171,276.102,416.771,273.521,417.44z"/>
<path fill-rule="evenodd" clip-rule="evenodd" fill="#949494" d="M229.595,382.389c-0.116,0.88,0.274,1.806-0.235,2.651
	c-0.001-0.643-0.002-1.286-0.004-1.929C229.365,382.847,229.342,382.572,229.595,382.389z"/>
<path fill-rule="evenodd" clip-rule="evenodd" fill="#9F9F9F" d="M292.241,417.44c0.411-0.085,0.854-0.124,0.941-0.666
	c0.244,0.055,0.391,0.218,0.491,0.435c-0.418,0.34-0.91,0.453-1.435,0.47c-0.079-0.054-0.104-0.106-0.078-0.159
	C292.188,417.467,292.214,417.44,292.241,417.44z"/>
<path fill-rule="evenodd" clip-rule="evenodd" fill="#B6B3B3" d="M249.994,413.36c-0.485-0.024-0.75-0.338-0.955-0.729
	C249.507,412.679,249.804,412.95,249.994,413.36z"/>
<path fill-rule="evenodd" clip-rule="evenodd" fill="#656464" d="M227.907,390.076c-0.038,0.409,0.161,0.861-0.223,1.207
	C227.729,390.875,227.534,390.423,227.907,390.076z"/>
<path fill-rule="evenodd" clip-rule="evenodd" fill="#959595" d="M283.607,332.969c-0.001-0.321-0.001-0.642-0.002-0.963
	c0.964,1.287,2.231,1.425,3.748,1.236c1.493-0.186,3.032-0.115,4.542-0.015c0.97,0.064,1.389-0.316,1.497-1.19
	c0.387-3.136,1.771-5.831,3.702-8.265c0.58-0.73,1.12-1.562,2.106-1.855c-0.095,1.047-0.942,1.437-1.679,1.923
	c-2.063,2.581-3.388,5.468-3.598,8.803c-0.054,0.858-0.757,0.965-1.277,0.979c-2.555,0.071-5.112,0.05-7.668,0.038
	C284.428,333.658,284.052,333.226,283.607,332.969z"/>
<path fill-rule="evenodd" clip-rule="evenodd" fill="#929191" d="M297.52,323.84c0.56-0.641,1.119-1.282,1.679-1.923
	c1.503-1.393,3.411-1.978,5.281-2.637c0.527-0.313,1.155,0.085,1.68-0.24c3.825-0.29,7.094,0.941,9.84,3.599
	c0.296,0.185,0.536,0.425,0.722,0.721c0.479,0.561,0.959,1.121,1.438,1.681c0,0.16,0,0.32,0,0.48
	c-0.159-0.082-0.318-0.165-0.477-0.247c-0.485-0.143-0.645-0.641-1.008-0.918c-1.936-2.166-4.185-3.88-7.113-4.355
	c-2.936-0.476-5.814-0.297-8.354,1.535c-0.076,0.09-0.163,0.168-0.256,0.24c-0.792,0.303-1.442,0.798-2.028,1.41
	c-0.307,0.319-0.568,0.806-1.16,0.658C297.682,323.843,297.601,323.841,297.52,323.84z"/>
<path fill-rule="evenodd" clip-rule="evenodd" fill="#959595" d="M306.16,319.04c-0.506,0.458-1.122,0.148-1.68,0.24
	C304.986,318.822,305.602,319.131,306.16,319.04z"/>
<path fill-rule="evenodd" clip-rule="evenodd" fill="#949393" d="M316.722,323.36c-0.325-0.156-0.565-0.396-0.722-0.721
	C316.457,322.662,316.698,322.903,316.722,323.36z"/>
<path fill-rule="evenodd" clip-rule="evenodd" fill="#ABAAAA" d="M321.78,371.834c3.917,5.583,7.875,11.136,11.971,16.589
	c2.441,3.428,4.888,6.853,7.32,10.288c0.846,1.194,1.657,2.414,2.484,3.623c-0.156,0.455-0.142,0.871,0.313,1.149
	c0.217,0.133,0.468,0.128,0.684-0.011c0.475-0.305,0.389-0.73,0.224-1.165c10.95-15.135,21.899-30.27,32.851-45.402
	c0.068-0.095,0.17-0.166,0.255-0.248c0.387,0.211,0.73,0.478,1.053,0.776c0.085,0.509-0.303,0.808-0.545,1.153
	c-5.111,7.304-10.417,14.467-15.618,21.706c-3.01,4.188-6.009,8.383-9.06,12.541c-2.624,3.576-5.307,7.108-7.726,10.83
	c-0.895,1.376-2.68,1.358-3.585-0.018c-4.047-6.144-8.535-11.973-12.778-17.976c-2.445-3.46-4.96-6.87-7.407-10.328
	c-3.048-4.306-6.2-8.537-9.253-12.84c-0.863-1.217-1.788-2.242-3.348-2.461c-0.434-0.279-0.882-0.552-0.601-1.19
	c0.087-0.073,0.175-0.146,0.262-0.218c0.968,0.71,1.946,1.346,3.144,0.449c2.482,3.393,4.963,6.787,7.447,10.178
	C320.499,370.122,321.143,370.976,321.78,371.834z"/>
<path fill-rule="evenodd" clip-rule="evenodd" fill="#868585" d="M380.074,356.722c0.302,0.165,0.232,0.449,0.228,0.711
	c-0.106,0.202-0.195,0.41-0.271,0.625c-0.097,0.353-0.077,0.714-0.087,1.073c-0.244,9.146-0.261,18.292-0.248,27.441
	c0.018,13.031,0.005,26.062,0.004,39.093c0,1.125-0.016,2.247-0.83,3.158c-0.477,0.455-1.078,0.469-1.681,0.47
	c-2.754,0.007-5.507,0.017-8.26-0.003c-1.766-0.013-2.383-0.625-2.4-2.379c-0.03-3.112,0.115-6.229-0.05-9.335
	c-0.271-5.101-0.144-10.202-0.194-15.303c-0.007-0.599-0.032-1.202,0.108-1.788c0.137-0.568,0.259-1.172-0.325-1.501
	c-0.651-0.369-1.226-0.04-1.696,0.47c-0.081,0.088-0.16,0.178-0.233,0.27c-0.87,1.118-1.729,2.246-2.57,3.39
	c-0.24,0.326-0.435,0.942-1.064,0.468c-0.094-0.2-0.104-0.406-0.063-0.621c0.918-1.744,2.118-3.288,3.452-4.723
	c0.638-0.688,1.467-0.985,2.4-0.609c0.914,0.368,1.315,1.117,1.41,2.061c0.052,0.518,0.039,1.038,0.039,1.558
	c0.001,4.637,0.063,9.275-0.02,13.911c-0.067,3.84,0.275,7.665,0.273,11.501c0,1.231,0.186,1.41,1.383,1.426
	c2.398,0.031,4.798,0.043,7.195-0.005c1.294-0.026,1.597-0.367,1.671-1.672c0.026-0.479,0.013-0.959,0.013-1.438
	c0-12.313-0.121-24.626,0.04-36.936c0.121-9.31,0.182-18.62,0.206-27.93c0.002-0.635-0.023-1.283,0.243-1.886
	c0.177-0.363,0.346-0.732,0.585-1.062C379.543,356.951,379.677,356.609,380.074,356.722z"/>
<path fill-rule="evenodd" clip-rule="evenodd" fill="#8F8F8F" d="M309.015,358.85c0.043,0.485,0.34,0.778,0.744,0.992
	c0.265,0.151,0.441,0.389,0.613,0.631c0.244,0.482,0.249,1.007,0.239,1.524c-0.149,7.512,0.306,15.016,0.267,22.528
	c-0.07,13.548-0.02,27.096-0.02,40.645c0,0.279-0.002,0.559,0.001,0.839c0.017,1.755,0.096,1.844,1.813,1.851
	c2.158,0.008,4.316,0.02,6.475-0.006c1.311-0.015,1.53-0.176,1.496-1.434c-0.099-3.559,0.137-7.114,0.324-10.655
	c0.245-4.632-0.085-9.271,0.362-13.89c0.065-0.677-0.078-1.354,0.006-2.035c0.249-2.021,2.386-2.921,4.032-1.688
	c0.355,0.266,0.647,0.595,0.915,0.945c1.503,1.97,2.95,3.98,4.399,5.99c0.357,0.496,0.849,1.013,0.465,1.733
	c-0.652,0.195-0.938-0.295-1.248-0.695c-1.515-1.96-2.945-3.981-4.403-5.982c-0.211-0.29-0.368-0.623-0.663-0.845
	c-0.466-0.349-0.969-0.596-1.555-0.335c-0.547,0.243-0.685,0.731-0.694,1.288c-0.017,1.039,0.048,2.08,0.006,3.118
	c-0.21,5.189-0.149,10.385-0.308,15.572c-0.08,2.632-0.128,5.265-0.191,7.898c-0.037,1.577-0.627,2.181-2.191,2.207
	c-2.078,0.034-4.158,0.029-6.237-0.001c-0.76-0.01-1.485,0.285-2.261,0.132c-1.476-0.292-1.748-0.574-1.744-2.06
	c0.012-4.238,0.096-8.479-0.029-12.715c-0.404-13.787-0.109-27.576-0.203-41.363c-0.023-3.559-0.007-7.118-0.003-10.676
	c0.001-0.973-0.186-1.813-0.84-2.535C308.508,359.407,308.609,359.062,309.015,358.85z"/>
<path fill-rule="evenodd" clip-rule="evenodd" fill="#7A7979" d="M308.581,359.831c1.019,0.279,1.178,1.069,1.178,1.962
	c-0.002,2.879-0.001,5.758,0,8.637c0.001,12.795-0.145,25.594,0.065,38.386c0.103,6.229,0.076,12.457,0.175,18.685
	c0.018,1.091,0.54,1.598,1.942,1.407c2.633-0.356,5.264-0.091,7.894-0.18c1.537-0.052,1.926-0.389,1.923-1.904
	c-0.011-6.189,0.262-12.374,0.315-18.563c0.023-2.662,0.113-5.339,0.149-8.009c0.01-0.758,0.182-1.391,0.885-1.672
	c0.776-0.31,1.544-0.077,2.055,0.569c0.913,1.154,1.728,2.386,2.624,3.553c1.086,1.412,1.951,3.003,3.334,4.179
	c0.041,0.055,0.081,0.108,0.122,0.162c0.044,0.271,0.109,0.552-0.285,0.622c-0.752-0.175-1.036-0.86-1.406-1.394
	c-1.297-1.868-2.728-3.635-4.044-5.487c-0.483-0.68-1.026-1.735-2.015-1.361c-0.899,0.341-0.399,1.419-0.414,2.159
	c-0.125,6.05,0.021,12.105-0.412,18.149c-0.191,2.174-0.039,4.351-0.089,6.525c-0.012,0.513,0.035,1.029-0.086,1.537
	c-0.343,0.78-0.895,1.312-1.758,1.469c-0.979,0.101-1.981-0.106-2.947,0.214c-2.226,0.125-4.451,0.047-6.678,0.049
	c-0.752,0-1.415-0.21-1.821-0.915c-0.389-0.765-0.113-1.56-0.121-2.346c-0.035-3.301,0.165-6.604-0.114-9.9
	c-0.169-1.986,0.249-3.969,0.054-5.956c-0.035-0.149-0.054-0.301-0.058-0.454c-0.147-12.59-0.101-25.18-0.109-37.769
	c-0.002-3.755,0.057-7.511-0.15-11.263c-0.066-0.282-0.058-0.584-0.22-0.842C308.572,359.997,308.576,359.914,308.581,359.831z"/>
<path fill-rule="evenodd" clip-rule="evenodd" fill="#5D5B5B" d="M365.917,407.603c-0.472-0.694-0.232-1.477-0.216-2.207
	c0.039-1.71-0.243-3.434,0.191-5.13c0.056-0.221,0.104-0.538-0.126-0.66c-0.355-0.188-0.45,0.178-0.606,0.394
	c-2.707,3.736-5.41,7.475-8.124,11.205c-3.697,5.084-7.401,10.163-11.107,15.24c-0.87,1.191-1.907,1.221-2.78,0.026
	c-3.805-5.203-7.586-10.423-11.377-15.636c-2.597-3.572-5.194-7.145-7.798-10.712c-0.085-0.117-0.229-0.189-0.539-0.437
	c0,0.846,0,1.502,0,2.158c-0.597-0.55-0.84-1.883-0.392-2.395c0.448-0.513,0.938-0.471,1.458-0.028
	c0.989,0.841,1.616,1.968,2.373,2.982c5.15,6.897,10.271,13.817,15.264,20.829c0.487,0.68,0.793,1.481,1.443,2.052
	c0.8,0.701,1.324,0.671,1.996-0.179c2.184-2.757,4.18-5.653,6.27-8.479c2.066-2.795,4.133-5.59,6.115-8.444
	c0.058-0.095,0.125-0.183,0.195-0.268c0.521-0.548,1.018-1.114,1.294-1.836c0.128-0.308,0.284-0.597,0.539-0.821
	c0.541-0.396,0.936-0.903,1.16-1.538c0.164-0.269,0.247-0.59,0.505-0.8c0.271-0.234,0.517-0.491,0.696-0.807
	c0.057-0.089,0.121-0.171,0.189-0.251c0.41-0.423,0.775-0.877,1.014-1.424c0.062-0.1,0.134-0.19,0.215-0.274
	c0.582-0.529,0.936-1.368,1.894-1.384c0.713,0.221,0.893,0.789,0.794,1.415c-0.311,1.979-0.122,3.968-0.183,5.951
	C366.259,406.655,366.343,407.192,365.917,407.603z"/>
<path fill-rule="evenodd" clip-rule="evenodd" fill="#717070" d="M365.917,407.603c0.103-2.421-0.188-4.851,0.228-7.267
	c0.114-0.669,0.124-1.438-0.944-1.375c-0.498,0.253-0.77,0.793-1.289,1.019c-0.052-0.021-0.104-0.042-0.154-0.063
	c0.009-0.506,0.416-0.748,0.713-1.06c0.52-0.545,1.203-0.518,1.775-0.262c0.604,0.271,0.656,0.919,0.599,1.558
	c-0.379,4.176-0.151,8.354-0.115,12.533c0.014,1.66,0.091,3.312,0.128,4.968c0.073,3.193,0.033,6.389,0.016,9.583
	c-0.005,1.048,0.393,1.713,1.503,1.719c3.114,0.016,6.229,0.009,9.344-0.01c0.306-0.002,0.609-0.149,0.914-0.229
	c0.835-0.479,0.814-1.315,0.845-2.105c0.121-3.07,0.129-6.143,0.127-9.215c-0.008-16.214-0.05-32.427,0.034-48.64
	c0.018-3.385-0.078-6.78,0.198-10.164c0.026-0.322,0.059-0.636,0.243-0.913c0.074-0.082,0.147-0.164,0.222-0.246
	c0.003,11.105,0.201,22.215-0.044,33.314c-0.273,12.338-0.038,24.673-0.182,37.008c-0.376,1.408-1.008,1.919-2.665,2.026
	c-1.474,0.096-2.952,0.032-4.429,0.033c-1.596,0-3.195,0.081-4.786-0.035c-1.514-0.11-2.246-0.606-2.18-2.313
	c0.103-2.63,0.032-5.267,0.021-7.9c-0.001-0.391,0.104-0.799-0.112-1.172C365.923,414.797,365.92,411.199,365.917,407.603z"/>
<path fill-rule="evenodd" clip-rule="evenodd" fill="#6F6E6E" d="M341.921,423.439c-2.089-2.897-4.171-5.802-6.27-8.691
	c-3.499-4.818-7.009-9.628-10.519-14.438c-0.116-0.16-0.264-0.303-0.416-0.43c-0.371-0.31-0.646-0.933-1.282-0.514
	c-0.559,0.368-0.583,0.929-0.351,1.489c0.134,0.325,0.012,0.74,0.351,0.988c-0.217,5.411-0.158,10.828-0.302,16.238
	c-0.061,2.261-0.111,4.528-0.178,6.793c-0.25,0.859-0.087,1.739-0.111,2.608c-0.036,1.341-0.425,1.871-1.708,2.2
	c-0.116,0.03-0.233,0.067-0.353,0.065c-3.192-0.051-6.373,0.438-9.565,0.235c-0.951-0.06-1.933-0.233-2.415-1.269
	c-0.003-7.709,0.143-15.422-0.042-23.127c-0.363-15.17-0.093-30.34-0.192-45.51c0.186,0.107,0.229,0.284,0.233,0.479
	c0.183,1.382,0.224,2.775,0.228,4.164c0.021,8.473-0.065,16.948,0.035,25.419c0.076,6.389,0.06,12.777,0.096,19.166
	c0.002,0.313-0.08,0.643,0.12,0.933c0.392,1.193-0.152,2.354-0.126,3.536c0.077,3.382,0.182,6.763,0.121,10.146
	c-0.02,1.112,0.103,2.229-0.107,3.336c-0.087,0.461,0.074,0.861,0.353,1.223c0.405,0.68,1.065,0.725,1.757,0.722
	c2.214-0.007,4.428-0.003,6.642-0.004c0.941-0.319,1.942,0.097,2.882-0.236c0.683-0.017,0.892-0.741,1.438-0.963
	c0.279-1.811,0.039-3.633,0.128-5.447c0.049-0.983-0.147-1.977,0.113-2.952c0.32-4.974,0.121-9.957,0.303-14.93
	c0.056-1.511-0.176-2.994-0.066-4.49c0.031-0.429-0.098-0.957,0.429-1.137c0.54-0.186,1.068-0.137,1.546,0.313
	c1.23,1.159,1.994,2.675,3.08,3.938c1.187,1.382,1.968,3.077,3.349,4.307c0.397,0.053,0.625,0.342,0.837,0.631
	c2.602,3.546,5.163,7.12,7.747,10.679c0.117,0.161,0.19,0.351,0.264,0.536c0.262,0.781,0.802,1.369,1.361,1.942
	c0.214,0.252,0.373,0.539,0.538,0.823c0.172,0.397,0.59,0.729,0.346,1.242C342.111,423.532,342.015,423.531,341.921,423.439z"/>
<path fill-rule="evenodd" clip-rule="evenodd" fill="#D5D1D1" d="M365.159,402.09c-0.913,0.502-1.328,1.439-1.903,2.225
	c-5.269,7.195-10.517,14.406-15.774,21.61c-0.516,0.706-0.934,1.482-1.597,2.084c-1.101,1.001-2.19,0.968-3.065-0.23
	c-2.441-3.344-4.839-6.72-7.269-10.073c-3.573-4.934-7.158-9.858-10.74-14.785c-0.207-0.285-0.394-0.649-0.85-0.357
	c0-0.395,0-0.79,0-1.501c1.478,2.044,2.794,3.872,4.118,5.695c4.721,6.497,9.443,12.992,14.165,19.489
	c0.163,0.225,0.327,0.45,0.471,0.688c0.86,1.415,2.464,1.548,3.423,0.238c3.242-4.431,6.46-8.879,9.693-13.314
	c3.065-4.206,6.141-8.404,9.328-12.767C365.159,401.562,365.159,401.826,365.159,402.09z"/>
<path fill-rule="evenodd" clip-rule="evenodd" fill="#5B5959" d="M365.926,418.395c0.374,0.362,0.222,0.829,0.224,1.252
	c0.014,2.6,0.006,5.199,0.01,7.8c0.002,1.329,0.491,1.955,1.798,1.976c3.199,0.052,6.4,0.06,9.599-0.009
	c1.101-0.023,2.102-0.466,2.521-1.657c0.007,2.087-0.532,2.643-2.574,2.644c-3.15,0.001-6.3,0.002-9.449,0.001
	c-1.713,0-2.128-0.396-2.131-2.078C365.916,425.013,365.924,421.703,365.926,418.395z"/>
<path fill-rule="evenodd" clip-rule="evenodd" fill="#5C5A5A" d="M308.803,428.717c0.876,0.698,1.895,0.936,2.991,0.965
	c2.937,0.078,5.856-0.278,8.794-0.293c1.66-0.009,2.3-0.857,2.167-2.2c-0.074-0.752-0.262-1.579,0.2-2.313
	c0.002,1.156,0.021,2.314,0,3.471c-0.024,1.308-0.7,2.036-1.973,2.044c-3.551,0.024-7.102,0.015-10.653,0.007
	C309.228,430.395,308.751,429.787,308.803,428.717z"/>
<path fill-rule="evenodd" clip-rule="evenodd" fill="#C3C2C2" d="M344.776,402.308c0.812,0.29,0.615,0.855,0.236,1.28
	c-0.446,0.498-1.088,0.536-1.575,0.043c-0.402-0.407-0.626-0.931,0.118-1.297C343.978,403.043,344.383,402.954,344.776,402.308z"/>
<path fill-rule="evenodd" clip-rule="evenodd" fill="#BDBCBC" d="M312.42,359.081c-0.063,0.688-0.531,0.804-1.094,0.756
	c-0.872-0.073-1.733-0.181-2.05-1.206c0.115-0.179,0.279-0.247,0.487-0.215c0.639,0.711,1.362,0.716,2.143,0.259
	C312.198,358.657,312.309,358.87,312.42,359.081z"/>
<path fill-rule="evenodd" clip-rule="evenodd" fill="#BCBBBB" d="M378.878,357.435c-0.575,0.052-0.931-0.176-0.996-0.778
	c0.588-0.839,1.229-1.103,1.979-0.184c-0.138,0.29-0.357,0.519-0.563,0.758C379.184,357.353,379.047,357.427,378.878,357.435z"/>
<path fill-rule="evenodd" clip-rule="evenodd" fill="#D0CECE" d="M311.906,358.675c-0.953,1.038-1.563,0.964-2.143-0.259
	C310.516,358.19,311.225,358.317,311.906,358.675z"/>
<path fill-rule="evenodd" clip-rule="evenodd" fill="#ABAAAA" d="M379.12,357.2c0.162-0.328,0.405-0.574,0.741-0.726
	c0.07,0.083,0.142,0.165,0.213,0.248c-0.156,0.16-0.313,0.32-0.471,0.481C379.441,357.333,379.28,357.354,379.12,357.2z"/>
<path fill-rule="evenodd" clip-rule="evenodd" fill="#C6C0C1" d="M262.713,431.846c1.764,0,3.529,0,5.293,0
	C266.242,432.227,264.478,432.227,262.713,431.846z"/>
<path fill-rule="evenodd" clip-rule="evenodd" fill="#C6C0C1" d="M260.313,431.605c0.721,0.089,1.488-0.235,2.167,0.237
	C261.758,431.761,260.995,432.056,260.313,431.605z"/>
<path fill-rule="evenodd" clip-rule="evenodd" fill="#C6C0C1" d="M268.24,431.843c0.679-0.473,1.446-0.148,2.167-0.237
	C269.726,432.056,268.962,431.761,268.24,431.843z"/>
<path fill-rule="evenodd" clip-rule="evenodd" fill="#C6C0C1" d="M258.638,431.362c0.483,0.067,1.019-0.189,1.442,0.237
	C259.596,431.54,259.064,431.774,258.638,431.362z"/>
<path fill-rule="evenodd" clip-rule="evenodd" fill="#C6C0C1" d="M270.64,431.6c0.418-0.429,0.957-0.164,1.435-0.248
	c0.031,0.041,0.063,0.082,0.094,0.122c-0.031,0.041-0.062,0.082-0.093,0.123c0,0,0.001-0.001,0.001-0.001
	C271.598,431.597,271.119,431.599,270.64,431.6z"/>
<path fill-rule="evenodd" clip-rule="evenodd" fill="#C6C0C1" d="M250.472,428.967c0.475-0.019,0.903,0.078,1.201,0.492
	C251.212,429.441,250.791,429.329,250.472,428.967z"/>
<path fill-rule="evenodd" clip-rule="evenodd" fill="#C6C0C1" d="M257.433,431.125c0.409,0.046,0.867-0.16,1.207,0.237
	C258.23,431.318,257.777,431.498,257.433,431.125z"/>
<path fill-rule="evenodd" clip-rule="evenodd" fill="#747272" d="M297.764,323.844c0.633-0.586,1.254-1.188,1.906-1.754
	c0.331-0.287,0.74-0.447,1.195-0.432c0.071,0.658-0.526,0.804-0.885,1.103c-0.874,0.727-1.807,1.39-2.207,2.527
	c-0.718,1.202-1.642,2.278-2.176,3.591c-0.613-0.907,0.194-1.556,0.495-2.234C296.53,325.658,297.195,324.772,297.764,323.844z"/>
<path fill-rule="evenodd" clip-rule="evenodd" fill="#C6C0C1" d="M274.481,430.884c1.882-0.782,3.813-1.411,5.792-1.896
	C278.444,429.928,276.537,430.633,274.481,430.884z"/>
<path fill-rule="evenodd" clip-rule="evenodd" fill="#C6C0C1" d="M272.075,431.352c0.77-0.324,1.568-0.505,2.409-0.469
	c-0.316,0.373-0.854,0.184-1.203,0.474c-0.396,0.192-0.793,0.173-1.192,0.013L272.075,431.352z"/>
<path fill-rule="evenodd" clip-rule="evenodd" fill="#E5E2E2" d="M272.088,431.369c0.397-0.004,0.795-0.008,1.192-0.013
	c-0.337,0.403-0.797,0.19-1.206,0.24C272.078,431.521,272.082,431.444,272.088,431.369z"/>
<path fill-rule="evenodd" clip-rule="evenodd" fill="#767272" d="M316.96,324.319c0.429,0.176,0.522,0.605,0.724,0.955
	c0.425,0.999,1.029,1.92,1.273,2.999c0.053,0.234,0.176,0.442-0.093,0.613c-0.657-1.107-1.315-2.214-1.974-3.321
	c0.085-0.302-0.155-0.558-0.122-0.853C316.781,324.556,316.831,324.418,316.96,324.319z"/>
<path fill-rule="evenodd" clip-rule="evenodd" fill="#757373" d="M309.525,458.965c-0.804,0.369-1.606,0.372-2.409-0.001
	C307.919,458.964,308.722,458.964,309.525,458.965z"/>
<path fill-rule="evenodd" clip-rule="evenodd" fill="#737272" d="M316.96,324.319c0,0.161,0,0.322,0,0.482
	c-0.279,0.112-0.477-0.042-0.609-0.241c-0.642-0.956-1.559-1.582-2.521-2.158l-0.114,0.024l-0.114-0.026
	c-0.654-0.788-1.657-0.977-2.495-1.448c-1.236-0.746-2.653-0.644-4.003-0.854c-1.801,0.165-3.538,0.581-5.2,1.301
	c-0.325,0.141-0.665,0.313-1.015,0.044c1.243-1.261,2.91-1.676,4.525-1.87C310.095,319.013,314.005,320.563,316.96,324.319z"/>
<path fill-rule="evenodd" clip-rule="evenodd" fill="#675D5E" d="M300.888,321.445c2.005-0.832,4.048-1.525,6.237-1.67
	c0.173,0.156,0.507,0.274,0.136,0.561c-0.806,0.07-1.612,0.156-2.418,0.224c-0.558,0.047-0.002,0.147-0.028,0.211
	c-2.809,0.786-5.128,2.335-7.041,4.517c-0.423-0.74,0.296-1.079,0.623-1.429c0.749-0.803,1.637-1.475,2.469-2.201
	C300.87,321.586,300.877,321.516,300.888,321.445z"/>
<path fill-rule="evenodd" clip-rule="evenodd" fill="#675D5E" d="M313.829,322.403c1.239-0.018,1.788,0.993,2.52,1.717
	c0.214,0.211,0.29,0.557,0.611,0.682c0.097,0.265,0.374,0.546-0.069,0.763C315.87,324.511,314.85,323.457,313.829,322.403z"/>
<path fill-rule="evenodd" clip-rule="evenodd" fill="#5E5253" d="M304.814,320.771c-0.189-0.036-0.378-0.071-0.674-0.126
	c1.103-0.54,2.172-0.38,3.218-0.413c1.014-0.371,1.99-0.027,2.967,0.176c0.278,0.058,0.312,0.31,0.156,0.555
	C308.602,320.591,306.717,320.415,304.814,320.771z"/>
<path fill-rule="evenodd" clip-rule="evenodd" fill="#675D5E" d="M310.48,320.962c-0.341-0.772-1.098-0.594-1.703-0.708
	c-0.459-0.086-0.945-0.021-1.42-0.024c-0.077-0.152-0.155-0.304-0.233-0.456c1.08,0.16,2.162,0.307,3.237,0.488
	c0.389,0.065,0.777,0.193,0.855,0.679c-0.088,0.132-0.189,0.144-0.306,0.036C310.768,320.972,310.624,320.967,310.48,320.962z"/>
<path fill-rule="evenodd" clip-rule="evenodd" fill="#5E5253" d="M310.911,320.977c0.102-0.012,0.204-0.023,0.306-0.035
	c0.939,0.249,1.958,0.37,2.384,1.459C312.66,322.008,311.684,321.687,310.911,320.977z"/>
<path fill-rule="evenodd" clip-rule="evenodd" fill="#AAA8A8" d="M292.241,417.44c0,0.079-0.001,0.159-0.002,0.238
	c-0.079,0.002-0.157,0.003-0.236,0.004c-1.533-0.123-2.378-1.364-3.472-2.18c-1.367-1.021-2.708-2.095-3.944-3.267
	c-0.805-0.764-1.264-0.472-1.853,0.179c-1.617,1.785-3.444,3.319-5.595,4.432c-3.677,1.902-7.5,3.172-11.719,3.269
	c-4.729,0.107-9.134-0.872-13.262-3.154c-0.75-0.344-0.75-0.344-0.52-0.818c1.775,0.784,3.458,1.785,5.339,2.326
	c5.213,1.498,10.408,1.625,15.555-0.286c0.562-0.208,1.172-0.219,1.706-0.503c0.96-0.479,1.92-0.96,2.88-1.439
	c2.137-0.837,3.728-2.412,5.229-4.044c1.036-1.128,1.473-1.231,2.637-0.227c1.986,1.716,4.015,3.382,6.035,5.059
	C291.364,417.313,291.775,417.476,292.241,417.44z"/>
<path fill-rule="evenodd" clip-rule="evenodd" fill="#959494" d="M243.76,380c0-0.161,0-0.321,0-0.482
	c4.713-6.393,11.042-9.814,18.96-10.319c0.079,0.053,0.105,0.107,0.08,0.16c-0.027,0.054-0.053,0.08-0.08,0.08
	c-7.632,0.734-13.908,3.939-18.53,10.164C244.076,379.757,243.905,379.869,243.76,380z"/>
<path fill-rule="evenodd" clip-rule="evenodd" fill="#959595" d="M272.08,428.24c-1.192,0.626-2.542,0.608-3.799,0.668
	c-3.042,0.145-6.106,0.209-9.121-0.435c-0.182-0.039-0.347-0.154-0.52-0.233c2.516,0.187,5.013,0.558,7.553,0.509
	C268.175,428.711,270.107,428.27,272.08,428.24z"/>
<path fill-rule="evenodd" clip-rule="evenodd" fill="#949494" d="M241.6,420.08c-1.49-0.909-2.69-2.109-3.6-3.599
	C239.3,417.58,240.499,418.781,241.6,420.08z"/>
<path fill-rule="evenodd" clip-rule="evenodd" fill="#989797" d="M232.001,406.879c-0.619-1.145-1.102-2.344-1.438-3.602
	C231.639,404.24,231.814,405.562,232.001,406.879z"/>
<path fill-rule="evenodd" clip-rule="evenodd" fill="#939393" d="M262.72,369.44c0-0.08,0-0.16,0-0.24c0.16,0,0.319,0,0.479,0
	c0.88-0.184,1.761-0.184,2.642,0c0.16,0,0.319,0,0.479,0c0.079,0.053,0.105,0.107,0.079,0.16c-0.026,0.054-0.053,0.08-0.079,0.08
	C265.12,369.44,263.92,369.44,262.72,369.44z"/>
<path fill-rule="evenodd" clip-rule="evenodd" fill="#959595" d="M257.44,428c-0.757,0.008-1.522,0.051-2.159-0.481
	C256.04,427.504,256.775,427.592,257.44,428z"/>
<path fill-rule="evenodd" clip-rule="evenodd" fill="#959494" d="M265.841,369.199c-0.881,0-1.762,0-2.642,0
	C264.08,368.813,264.96,368.813,265.841,369.199z"/>
<path fill-rule="evenodd" clip-rule="evenodd" fill="#A5A5A5" d="M251.44,416.24c0.24,0.24,0.48,0.48,0.72,0.721
	c-0.746,0.006-1.243-0.425-1.68-0.96l0-0.001c0.324-0.242,0.603-0.106,0.874,0.104C251.383,416.148,251.412,416.194,251.44,416.24z"
	/>
<path fill-rule="evenodd" clip-rule="evenodd" fill="#949494" d="M237.281,415.76c-0.508-0.354-0.807-0.849-0.96-1.439
	C236.896,414.63,237.182,415.132,237.281,415.76z"/>
<path fill-rule="evenodd" clip-rule="evenodd" fill="#919090" d="M250.719,425.84c-0.662-0.001-1.205-0.281-1.678-0.722
	C249.702,425.122,250.244,425.402,250.719,425.84z"/>
<path fill-rule="evenodd" clip-rule="evenodd" fill="#959595" d="M275.2,427.521c-0.564,0.464-1.235,0.5-1.92,0.479
	C273.875,427.658,274.517,427.506,275.2,427.521z"/>
<path fill-rule="evenodd" clip-rule="evenodd" fill="#959494" d="M266.32,369.44c0-0.08,0-0.16,0-0.24
	c0.717,0.104,1.484-0.237,2.16,0.24c-0.561,0-1.122,0-1.683,0.001C266.639,369.44,266.479,369.44,266.32,369.44z"/>
<path fill-rule="evenodd" clip-rule="evenodd" fill="#949494" d="M233.439,409.76c-0.555-0.322-0.711-0.843-0.72-1.438
	C233.12,408.721,233.338,409.211,233.439,409.76z"/>
<path fill-rule="evenodd" clip-rule="evenodd" fill="#919090" d="M255.28,427.521c-0.54,0.02-1.062-0.014-1.44-0.479
	C254.367,427.061,254.864,427.169,255.28,427.521z"/>
<path fill-rule="evenodd" clip-rule="evenodd" fill="#919090" d="M249.042,425.119c-0.496-0.081-0.946-0.235-1.201-0.718
	C248.335,424.483,248.785,424.64,249.042,425.119z"/>
<path fill-rule="evenodd" clip-rule="evenodd" fill="#919090" d="M252.399,426.561c-0.469,0.014-0.888-0.1-1.199-0.48
	C251.669,426.066,252.088,426.18,252.399,426.561z"/>
<path fill-rule="evenodd" clip-rule="evenodd" fill="#949494" d="M244,422c-0.485-0.02-0.749-0.335-0.96-0.72
	C243.525,421.3,243.789,421.615,244,422z"/>
<path fill-rule="evenodd" clip-rule="evenodd" fill="#949494" d="M243.04,421.28c-0.486-0.02-0.749-0.335-0.96-0.721
	C242.565,420.579,242.829,420.895,243.04,421.28z"/>
<path fill-rule="evenodd" clip-rule="evenodd" fill="#949494" d="M236.32,414.32c-0.385-0.211-0.701-0.475-0.72-0.96
	C235.986,413.571,236.3,413.835,236.32,414.32z"/>
<path fill-rule="evenodd" clip-rule="evenodd" fill="#959595" d="M273.28,428c-0.336,0.398-0.795,0.184-1.2,0.24
	C272.417,427.843,272.875,428.057,273.28,428z"/>
<path fill-rule="evenodd" clip-rule="evenodd" fill="#959595" d="M258.64,428.24c-0.405-0.057-0.864,0.158-1.2-0.24
	C257.845,428.057,258.304,427.843,258.64,428.24z"/>
<path fill-rule="evenodd" clip-rule="evenodd" fill="#6F6E6E" d="M269.443,370.396c-0.001,0.081-0.002,0.162-0.003,0.244
	c-1.617-0.159-3.239-0.485-4.85-0.438c-2.453,0.072-4.904,0.356-7.274,1.089c-6.363,1.967-11.123,5.918-14.314,11.724
	c-1.35,2.456-2.32,5.143-2.284,7.945c0.026,2.019,0.102,4.053,0.161,6.081c-1.355-4.002-0.831-7.927,0.623-11.759
	c2.188-5.768,6.196-9.979,11.611-12.799c3.352-1.745,6.968-2.696,10.803-2.564c0.402-0.178,0.804-0.178,1.206,0
	c0.239,0,0.478,0,0.717,0c0.694,0.331,1.468-0.072,2.164,0.239c0.079-0.001,0.157-0.001,0.236,0.001
	C268.598,370.455,269.081,370.121,269.443,370.396L269.443,370.396z"/>
<path fill-rule="evenodd" clip-rule="evenodd" fill="#737171" d="M268.004,370.158c-0.719-0.101-1.487,0.241-2.164-0.239
	C266.559,370.017,267.326,369.689,268.004,370.158z"/>
<path fill-rule="evenodd" clip-rule="evenodd" fill="#737171" d="M269.443,370.397c-0.406-0.053-0.866,0.162-1.203-0.239
	C268.646,370.212,269.104,370.007,269.443,370.397z"/>
<path fill-rule="evenodd" clip-rule="evenodd" fill="#737171" d="M265.123,369.918c-0.402,0-0.804,0-1.206,0
	C264.319,369.572,264.721,369.572,265.123,369.918z"/>
<path fill-rule="evenodd" clip-rule="evenodd" fill="#B6B3B3" d="M274.24,417.68c-1.496,0.981-3.234,1.316-4.927,1.629
	c-4.6,0.85-9.148,0.553-13.545-1.13c-1.474-0.564-2.887-1.288-4.328-1.938c-0.214-0.198-0.505-0.28-0.718-0.481
	c-0.161-0.239-0.321-0.479-0.482-0.719c1.578,0.558,2.844,1.687,4.383,2.345c2.771,1.187,5.618,1.932,8.631,1.969
	c2.405,0.029,4.829,0.173,7.146-0.712c1.039-0.321,2.077-0.643,3.116-0.964C273.757,417.678,273.999,417.679,274.24,417.68z"/>
<path fill-rule="evenodd" clip-rule="evenodd" fill="#949494" d="M229.12,390.08c0,1.44,0,2.88,0,4.32
	C228.726,392.96,228.726,391.52,229.12,390.08z"/>
<path fill-rule="evenodd" clip-rule="evenodd" fill="#949494" d="M229.36,385.52c-0.122,0.957,0.259,1.955-0.24,2.88
	C229.242,387.443,228.86,386.445,229.36,385.52z"/>
<path fill-rule="evenodd" clip-rule="evenodd" fill="#CBC5C5" d="M267.521,357.92c-1.76,0-3.52,0-5.28,0
	C264,357.523,265.76,357.523,267.521,357.92z"/>
<path fill-rule="evenodd" clip-rule="evenodd" fill="#CBC5C5" d="M270.4,358.16c-0.797-0.108-1.641,0.249-2.4-0.24
	C268.797,358.028,269.641,357.671,270.4,358.16z"/>
<path fill-rule="evenodd" clip-rule="evenodd" fill="#CBC5C5" d="M261.76,357.92c-0.506,0.458-1.122,0.147-1.68,0.239
	C260.586,357.701,261.202,358.012,261.76,357.92z"/>
<path fill-rule="evenodd" clip-rule="evenodd" fill="#B4B1B1" d="M253.362,360.322c2.07-1.025,4.344-1.255,6.568-1.676
	c0.3-0.057,0.641,0.055,0.871-0.245c1,0.078,1.982-0.222,2.963-0.214c5.226,0.037,10.381,0.563,15.28,2.577
	c0.072,0.029,0.157,0.026,0.236,0.038c0.324,0.218,0.791,0.187,1.015,0.58c-0.019,0.047-0.037,0.094-0.056,0.141
	c-1.41-0.261-2.669-0.964-4.044-1.356c-2.063-0.587-4.147-0.984-6.261-1.288c-2.015-0.29-4.041-0.233-6.066-0.24
	c-3.199-0.012-6.284,0.641-9.33,1.555C254.167,360.304,253.755,360.282,253.362,360.322z"/>
<path fill-rule="evenodd" clip-rule="evenodd" fill="#B4B1B1" d="M242.319,366.319c0.16-0.24,0.32-0.479,0.481-0.719
	c1.272-0.948,2.541-1.902,4.077-2.401c0.082-0.103,0.163-0.097,0.244,0.002c-0.301,0.443-0.991,0.401-1.202,0.959
	c-0.24,0.16-0.479,0.321-0.719,0.481c-0.626,0.308-1.141,0.771-1.682,1.198c-0.24,0.161-0.479,0.322-0.718,0.482
	c-0.16,0.134-0.32,0.147-0.48-0.001L242.319,366.319z"/>
<path fill-rule="evenodd" clip-rule="evenodd" fill="#B4B1B1" d="M283.84,362.96c0.374,0.645,1.108,0.73,1.677,1.069
	c0.381,0.227,0.767,0.425,0.962,0.851c-2.151-0.989-4.181-2.2-6.241-3.358l0.002-0.003c0.465-0.246,0.8,0.155,1.199,0.242v0
	c0.309,0.181,0.688,0.224,0.96,0.479l0,0C282.887,362.468,283.407,362.627,283.84,362.96z"/>
<path fill-rule="evenodd" clip-rule="evenodd" fill="#B4B1B1" d="M247.121,363.201c-0.081-0.001-0.162-0.001-0.243-0.002
	c0.258-0.478,0.706-0.638,1.203-0.715C247.904,362.914,247.471,363.001,247.121,363.201z"/>
<path fill-rule="evenodd" clip-rule="evenodd" fill="#ABA9A9" d="M243.519,365.839c0.393-0.634,0.915-1.088,1.682-1.198
	C244.713,365.144,244.23,365.651,243.519,365.839z"/>
<path fill-rule="evenodd" clip-rule="evenodd" fill="#ABA9A9" d="M242.321,366.32c0.16,0,0.32,0,0.48,0.001
	c-0.389,0.51-0.722,1.085-1.44,1.199C241.68,367.12,242,366.72,242.321,366.32z"/>
<path fill-rule="evenodd" clip-rule="evenodd" fill="#C0BCBC" d="M281.44,361.761c-0.4-0.081-0.799-0.162-1.199-0.242
	c-0.321-0.239-0.641-0.479-0.961-0.718C280.12,360.849,280.802,361.256,281.44,361.761z"/>
<path fill-rule="evenodd" clip-rule="evenodd" fill="#C0BCBC" d="M283.84,362.96c-0.549-0.103-1.04-0.322-1.44-0.721
	C282.997,362.248,283.519,362.404,283.84,362.96z"/>
<path fill-rule="evenodd" clip-rule="evenodd" fill="#C0BCBC" d="M282.4,362.24c-0.381-0.038-0.716-0.168-0.96-0.479
	C281.851,361.737,282.218,361.804,282.4,362.24z"/>
<path fill-rule="evenodd" clip-rule="evenodd" fill="#AAA8A8" d="M250.722,415.759c0.344,0.004,0.584,0.163,0.718,0.481
	c-0.319-0.08-0.64-0.16-0.959-0.24c0-0.08,0-0.16,0-0.24C250.561,415.76,250.642,415.76,250.722,415.759z"/>
<path fill-rule="evenodd" clip-rule="evenodd" fill="#A1A0A0" d="M379.12,357.2c0.161,0.001,0.322,0.002,0.483,0.003
	c-0.162,0.239-0.324,0.478-0.486,0.716c-2.562,5.01-6.257,9.247-9.469,13.811c-4.739,6.733-9.616,13.369-14.438,20.044
	c-2.808,3.886-5.716,7.699-8.435,11.651c-1.549,2.251-3.717,1.951-5.082,0.012c-4.67-6.635-9.439-13.199-14.18-19.785
	c-5.277-7.333-10.576-14.649-15.852-21.983c-0.436-0.605-1.058-0.962-1.661-1.35c-0.08-0.159-0.161-0.318-0.242-0.477
	c2.089,0.063,2.916,1.754,3.925,3.134c2.488,3.403,4.897,6.865,7.354,10.292c4.355,6.078,8.714,12.152,13.088,18.217
	c2.629,3.645,5.315,7.25,7.915,10.916c0.612,0.864,0.876,2.066,2.225,2.028c1.276-0.035,1.504-1.215,2.099-2.038
	c4.513-6.259,9.077-12.479,13.609-18.723c3.691-5.086,7.362-10.186,11.037-15.284c2.627-3.646,5.245-7.298,7.868-10.948
	C378.959,357.356,379.039,357.278,379.12,357.2z"/>
<path fill-rule="evenodd" clip-rule="evenodd" fill="#969696" d="M310.001,360.318c0.9-0.002,1.441,0.533,1.933,1.214
	c5.536,7.677,11.09,15.342,16.628,23.017c3.701,5.128,7.41,10.25,11.056,15.417c0.778,1.104,1.571,2.195,2.375,3.279
	c1.5,2.022,3.308,1.979,4.665-0.098c1.895-2.896,3.995-5.642,6.055-8.42c3.313-4.471,6.509-9.028,9.766-13.542
	c4.816-6.675,9.632-13.353,14.478-20.008c0.771-1.058,1.23-2.315,2.162-3.26c-0.092,0.506-0.254,0.992-0.247,1.526
	c0.182,14.142-0.347,28.281-0.24,42.423c0.063,8.194,0.011,16.39,0.009,24.585c-0.001,1.701-0.325,2.023-2.033,2.025
	c-2.558,0.003-5.117-0.029-7.675,0.019c-0.959,0.018-1.32-0.261-1.354-1.284c-0.293-8.983-0.217-17.969-0.206-26.954
	c0.001-1.084-0.162-2.029-1.32-2.406c-1.132-0.367-1.832,0.386-2.404,1.163c-1.03,1.399-2.216,2.693-3.008,4.263
	c-0.231,0.328-0.361,0.717-0.613,1.034c-0.243,0.325-0.514,0.63-0.725,0.979c-0.422,0.529-0.822,1.074-1.145,1.673
	c-0.212,0.387-0.463,0.744-0.767,1.064c-2.26,2.899-4.362,5.914-6.521,8.888c-0.68,0.938-1.477,1.787-2.078,2.783
	c-0.996,1.343-1.937,2.727-2.957,4.053c-1.049,1.36-1.585,1.384-2.63-0.037c-2.379-3.235-4.717-6.502-7.078-9.751
	c-1.494-2.056-2.942-4.146-4.511-6.147c-0.227-0.29-0.313-0.634-0.497-0.935l0.002-0.002c-0.144-1.229-1.084-2-1.725-2.932
	c-1.103-1.604-2.26-3.175-3.459-4.71c-0.421-0.54-0.826-1.172-1.667-1.246c-1.889-0.166-2.659,0.519-2.671,2.413
	c-0.019,3.1-0.071,6.199-0.074,9.299c-0.002,3.51-0.215,7.014-0.314,10.519c-0.065,2.266-0.127,4.537-0.154,6.806
	c-0.01,0.849-0.248,1.237-1.162,1.225c-2.717-0.037-5.436-0.049-8.152,0.006c-1.037,0.021-1.283-0.404-1.276-1.355
	c0.034-4.636,0.016-9.271,0.016-13.907c-0.001-12.109,0.084-24.219-0.041-36.327c-0.053-5.064-0.211-10.129-0.195-15.196
	C310.246,361.065,310.204,360.678,310.001,360.318z"/>
<path fill-rule="evenodd" clip-rule="evenodd" fill="#727171" d="M380.08,357.68c-0.551,21.772-0.08,43.549-0.254,65.322
	c-0.012,1.508-0.278,3.008-0.256,4.526c0.009,0.547-0.208,1.123-0.938,1.188c0.64-0.84,0.728-1.816,0.728-2.825
	c-0.002-19.017-0.049-38.033,0.048-57.049c0.018-3.382,0.177-6.771,0.188-10.158C379.597,358.263,379.644,357.882,380.08,357.68z"/>
<path fill-rule="evenodd" clip-rule="evenodd" fill="#717070" d="M361.84,403.039c-0.16,0.24-0.319,0.48-0.479,0.721
	c-0.329,0.611-0.784,1.132-1.201,1.68c-0.16,0.24-0.32,0.479-0.48,0.72c-0.469,0.648-0.936,1.298-1.438,1.922v-0.001
	c-0.138,0.162-0.244,0.39-0.525,0.256c-0.063-0.093-0.097-0.196-0.105-0.309c0.101-0.623,0.618-1.012,0.87-1.55
	c0.056-0.093,0.118-0.18,0.188-0.262c0.382-0.44,0.723-0.909,1.014-1.415c0.054-0.092,0.118-0.176,0.189-0.255
	c0.237-0.213,0.386-0.504,0.628-0.713c0.047-0.024,0.095-0.048,0.143-0.071c0.793-1.029,1.599-2.051,2.373-3.095
	c0.216-0.291,0.407-0.585,0.742-0.75l0.007,0.006c0.146,0.16,0.13,0.319-0.002,0.479l0,0c-0.331,0.609-0.787,1.129-1.2,1.679l0,0
	C362.338,402.413,362.053,402.699,361.84,403.039z"/>
<path fill-rule="evenodd" clip-rule="evenodd" fill="#898989" d="M359.919,404.239c0.021-0.484,0.337-0.748,0.72-0.961
	c0.001,0.161,0.002,0.322,0.003,0.483l0.001-0.001c-0.173,0.199-0.282,0.466-0.574,0.54
	C360.019,404.28,359.969,404.26,359.919,404.239z"/>
<path fill-rule="evenodd" clip-rule="evenodd" fill="#747373" d="M309.28,410.24c-0.391-0.354-0.231-0.823-0.233-1.243
	c-0.012-3.952,0.099-7.908-0.026-11.857c-0.386-12.192-0.145-24.387-0.219-36.581c0.371,1.34,0.456,2.728,0.459,4.095
	C309.291,379.849,309.28,395.044,309.28,410.24z"/>
<path fill-rule="evenodd" clip-rule="evenodd" fill="#8A8A8A" d="M331.118,406.882c2.027,2.189,3.588,4.731,5.357,7.115
	c2.388,3.216,4.699,6.487,7.069,9.716c0.858,1.168,1.081,1.097,2.007-0.062c1.062-1.328,1.875-2.843,3.089-4.052
	c0.139,0.14,0.17,0.312,0.152,0.5c-0.857,1.908-2.185,3.499-3.542,5.05c-0.595,0.68-1.182,0.536-1.803-0.224
	c-0.683-0.833-1.096-1.845-1.77-2.684c-0.16-0.24-0.32-0.481-0.48-0.722c-0.502-0.624-0.968-1.274-1.437-1.922
	c-2.104-2.942-4.205-5.887-6.314-8.825c-0.766-1.065-1.551-2.115-2.327-3.173C331.119,407.361,331.118,407.121,331.118,406.882z"/>
<path fill-rule="evenodd" clip-rule="evenodd" fill="#747373" d="M309.521,428.48c-0.504-0.229-0.481-0.677-0.481-1.124
	c0.003-4.797-0.017-9.593,0.02-14.389c0.007-0.906,0.312-1.804,0.222-2.728c0.392,0.354,0.294,0.843,0.222,1.239
	c-0.521,2.859,0.11,5.711,0.012,8.563c-0.085,2.465,0.239,4.938-0.196,7.396C309.26,427.765,309.446,428.133,309.521,428.48z"/>
<path fill-rule="evenodd" clip-rule="evenodd" fill="#747373" d="M322.48,419.6c0,2.388,0.007,4.775-0.008,7.162
	c-0.002,0.418,0.158,0.886-0.233,1.237c0-2.387-0.007-4.773,0.008-7.16C322.25,420.42,322.091,419.953,322.48,419.6z"/>
<path fill-rule="evenodd" clip-rule="evenodd" fill="#747373" d="M320.801,428.962c-0.927,0.495-1.925,0.119-2.882,0.236
	C318.846,428.705,319.844,429.08,320.801,428.962z"/>
<path fill-rule="evenodd" clip-rule="evenodd" fill="#696868" d="M357.762,408.321c0.16-0.08,0.319-0.16,0.479-0.241
	c-1.288,2.373-3.066,4.406-4.603,6.607c-1.698,2.434-3.522,4.781-5.287,7.17c-0.896,1.211-1.771,2.437-2.676,3.642
	c-0.595,0.792-1.306,0.802-2.066,0.228c-0.788-0.596-1.147-1.509-1.688-2.287c0.081-0.001,0.162-0.002,0.243-0.002
	c0.813,0.041,0.863,0.83,1.224,1.295c0.821,1.057,1.142,1.145,2.026,0.116c1.533-1.78,2.785-3.774,4.139-5.691
	c2.371-3.36,4.852-6.643,7.268-9.972C357.072,408.839,357.264,408.408,357.762,408.321z"/>
<path fill-rule="evenodd" clip-rule="evenodd" fill="#696868" d="M358.241,408.081c0.309-0.769,0.764-1.427,1.438-1.922
	C359.42,406.965,358.967,407.625,358.241,408.081z"/>
<path fill-rule="evenodd" clip-rule="evenodd" fill="#696868" d="M360.159,405.439c0.194-0.707,0.695-1.194,1.201-1.68
	C361.247,404.525,360.799,405.051,360.159,405.439z"/>
<path fill-rule="evenodd" clip-rule="evenodd" fill="#696868" d="M363.762,400.401c0-0.16,0.001-0.319,0.002-0.479
	c0.545-0.223,0.752-0.948,1.437-0.962C364.814,399.535,364.335,400.015,363.762,400.401z"/>
<path fill-rule="evenodd" clip-rule="evenodd" fill="#696868" d="M362.562,402.08c0.19-0.709,0.692-1.195,1.2-1.679
	C363.647,401.166,363.196,401.688,362.562,402.08z"/>
<path fill-rule="evenodd" clip-rule="evenodd" fill="#696868" d="M361.84,403.039c0.021-0.484,0.335-0.749,0.722-0.959
	C362.54,402.565,362.228,402.83,361.84,403.039z"/>
<path fill-rule="evenodd" clip-rule="evenodd" fill="#787777" d="M357.762,408.321c-3.881,5.348-7.75,10.703-11.647,16.039
	c-1.416,1.938-1.881,1.898-3.269-0.115c-0.199-0.289-0.304-0.667-0.682-0.808c-0.162-0.398-0.323-0.797-0.485-1.195
	c0.808,0.557,1.235,1.432,1.789,2.192c0.823,1.132,1.131,1.223,1.939,0.171c1.129-1.469,2.16-3.014,3.233-4.526
	c0.947-1.938,2.448-3.495,3.664-5.247c1.557-2.242,3.227-4.407,4.809-6.634c0.202-0.109,0.397-0.254,0.645-0.121
	C357.759,408.159,357.76,408.24,357.762,408.321z"/>
<path fill-rule="evenodd" clip-rule="evenodd" fill="#787777" d="M339.762,419.599c0.674,0.494,1.13,1.152,1.437,1.922
	C340.473,421.063,340.02,420.403,339.762,419.599z"/>
<path fill-rule="evenodd" clip-rule="evenodd" fill="#898989" d="M357.28,408.319c-2.756,3.823-5.512,7.646-8.273,11.466
	c-0.089,0.122-0.243,0.196-0.366,0.294c0-0.16,0-0.32,0-0.479c0.967-1.83,2.405-3.328,3.545-5.042
	c1.361-2.047,2.902-3.976,4.35-5.968c0.214-0.294,0.408-0.587,0.744-0.752C357.434,407.998,357.411,408.159,357.28,408.319z"/>
<path fill-rule="evenodd" clip-rule="evenodd" fill="#868585" d="M357.28,408.319c-0.001-0.16-0.001-0.32-0.001-0.48
	c0.239-0.32,0.479-0.64,0.719-0.96c0.22-0.191,0.275-0.633,0.725-0.478c-0.083,0.695-0.809,1.022-0.965,1.676
	C357.599,408.158,357.439,408.238,357.28,408.319z"/>
<path fill-rule="evenodd" clip-rule="evenodd" fill="#898989" d="M358.723,406.401c-0.242,0.159-0.483,0.318-0.725,0.478
	c0.217-0.691,0.566-1.287,1.201-1.68c0.035,0.04,0.07,0.08,0.105,0.119C359.356,405.813,358.888,406.025,358.723,406.401
	L358.723,406.401z"/>
<path fill-rule="evenodd" clip-rule="evenodd" fill="#898989" d="M359.199,405.199c0.021-0.483,0.336-0.747,0.72-0.96l0.003,0.002
	c0.147,0.16,0.131,0.32,0.001,0.481l0.001-0.001c-0.222,0.189-0.275,0.631-0.723,0.479L359.199,405.199z"/>
<path fill-rule="evenodd" clip-rule="evenodd" fill="#868585" d="M359.201,405.201c0.241-0.16,0.481-0.319,0.723-0.479
	c-0.218,0.691-0.57,1.285-1.202,1.681C358.882,406.002,359.041,405.602,359.201,405.201z"/>
<path fill-rule="evenodd" clip-rule="evenodd" fill="#868585" d="M359.923,404.723c-0.001-0.16-0.001-0.321-0.001-0.481
	c0.24-0.16,0.48-0.32,0.721-0.48C360.619,404.243,360.306,404.509,359.923,404.723z"/>
</svg>
